<?xml version="1.0" encoding="UTF-8" standalone="no"?><svg xmlns="http://www.w3.org/2000/svg" xmlns:xlink="http://www.w3.org/1999/xlink" contentScriptType="application/ecmascript" contentStyleType="text/css" height="528px" preserveAspectRatio="none" style="width:403px;height:528px;background:#FFFFFF;" version="1.1" viewBox="0 0 403 528" width="403px" zoomAndPan="magnify"><defs><filter height="300%" id="f1glj688zs9dk8" width="300%" x="-1" y="-1"><feGaussianBlur result="blurOut" stdDeviation="2.0"/><feColorMatrix in="blurOut" result="blurOut2" type="matrix" values="0 0 0 0 0 0 0 0 0 0 0 0 0 0 0 0 0 0 .4 0"/><feOffset dx="4.0" dy="4.0" in="blurOut2" result="blurOut3"/><feBlend in="SourceGraphic" in2="blurOut3" mode="normal"/></filter></defs><g><!--MD5=[4dee29f85b217686b3aafe3136fb924c]
cluster psr.log--><polygon fill="#FFFFFF" filter="url(#f1glj688zs9dk8)" points="16,6,71,6,78,28.4883,386,28.4883,386,222,16,222,16,6" style="stroke:#000000;stroke-width:1.5;"/><line style="stroke:#000000;stroke-width:1.5;" x1="16" x2="78" y1="28.4883" y2="28.4883"/><text fill="#000000" font-family="sans-serif" font-size="14" font-weight="bold" lengthAdjust="spacing" textLength="49" x="20" y="21.5352">psr.log</text><!--MD5=[c6db52c943aa4e255235ac878148ce84]
cluster md.log--><polygon fill="#FFFFFF" filter="url(#f1glj688zs9dk8)" points="16,246,71,246,78,268.4883,386,268.4883,386,521,16,521,16,246" style="stroke:#000000;stroke-width:1.5;"/><line style="stroke:#000000;stroke-width:1.5;" x1="16" x2="78" y1="268.4883" y2="268.4883"/><text fill="#000000" font-family="sans-serif" font-size="14" font-weight="bold" lengthAdjust="spacing" textLength="49" x="20" y="261.5352">md.log</text><!--MD5=[f2739334762f199a60e808420ae2011e]
class psr.log.LoggerInterface--><rect codeLine="11" fill="#EBEBEB" filter="url(#f1glj688zs9dk8)" height="164.5957" id="psr.log.LoggerInterface" style="stroke:#333333;stroke-width:1.5;" width="338" x="32" y="41"/><ellipse cx="152.25" cy="57" fill="#B4A7E5" rx="11" ry="11" style="stroke:#333333;stroke-width:1.0;"/><path d="M148.1777,52.7651 L148.1777,50.6069 L155.5571,50.6069 L155.5571,52.7651 L153.0918,52.7651 L153.0918,60.8418 L155.5571,60.8418 L155.5571,63 L148.1777,63 L148.1777,60.8418 L150.6431,60.8418 L150.6431,52.7651 Z " fill="#000000"/><text fill="#000000" font-family="sans-serif" font-size="12" font-style="italic" lengthAdjust="spacing" textLength="89" x="172.75" y="61.5352">LoggerInterface</text><line style="stroke:#333333;stroke-width:1.5;" x1="33" x2="369" y1="73" y2="73"/><ellipse cx="43" cy="84" fill="#84BE84" rx="3" ry="3" style="stroke:#038048;stroke-width:1.0;"/><text fill="#000000" font-family="sans-serif" font-size="11" lengthAdjust="spacing" textLength="303" x="52" y="87.6348">emergency (message: str, context: dict = None) -&gt; None</text><ellipse cx="43" cy="96.9551" fill="#84BE84" rx="3" ry="3" style="stroke:#038048;stroke-width:1.0;"/><text fill="#000000" font-family="sans-serif" font-size="11" lengthAdjust="spacing" textLength="268" x="52" y="100.5898">alert (message: str, context: dict = None) -&gt; None</text><ellipse cx="43" cy="109.9102" fill="#84BE84" rx="3" ry="3" style="stroke:#038048;stroke-width:1.0;"/><text fill="#000000" font-family="sans-serif" font-size="11" lengthAdjust="spacing" textLength="280" x="52" y="113.5449">critical (message: str, context: dict = None) -&gt; None</text><ellipse cx="43" cy="122.8652" fill="#84BE84" rx="3" ry="3" style="stroke:#038048;stroke-width:1.0;"/><text fill="#000000" font-family="sans-serif" font-size="11" lengthAdjust="spacing" textLength="272" x="52" y="126.5">error (message: str, context: dict = None) -&gt; None</text><ellipse cx="43" cy="135.8203" fill="#84BE84" rx="3" ry="3" style="stroke:#038048;stroke-width:1.0;"/><text fill="#000000" font-family="sans-serif" font-size="11" lengthAdjust="spacing" textLength="287" x="52" y="139.4551">warning (message: str, context: dict = None) -&gt; None</text><ellipse cx="43" cy="148.7754" fill="#84BE84" rx="3" ry="3" style="stroke:#038048;stroke-width:1.0;"/><text fill="#000000" font-family="sans-serif" font-size="11" lengthAdjust="spacing" textLength="277" x="52" y="152.4102">notice (message: str, context: dict = None) -&gt; None</text><ellipse cx="43" cy="161.7305" fill="#84BE84" rx="3" ry="3" style="stroke:#038048;stroke-width:1.0;"/><text fill="#000000" font-family="sans-serif" font-size="11" lengthAdjust="spacing" textLength="265" x="52" y="165.3652">info (message: str, context: dict = None) -&gt; None</text><ellipse cx="43" cy="174.6855" fill="#84BE84" rx="3" ry="3" style="stroke:#038048;stroke-width:1.0;"/><text fill="#000000" font-family="sans-serif" font-size="11" lengthAdjust="spacing" textLength="278" x="52" y="178.3203">debug (message: str, context: dict = None) -&gt; None</text><line style="stroke:#333333;stroke-width:1.0;" x1="33" x2="369" y1="184.6406" y2="184.6406"/><ellipse cx="43" cy="195.6406" fill="#84BE84" rx="3" ry="3" style="stroke:#038048;stroke-width:1.0;"/><text fill="#000000" font-family="sans-serif" font-size="11" lengthAdjust="spacing" textLength="312" x="52" y="199.2754">log (level: str, message: str, context: dict = None) -&gt; None</text><!--MD5=[aa890edfa53d487f7be5005990873fd1]
class md.log.Logger--><rect codeLine="26" fill="#EBEBEB" filter="url(#f1glj688zs9dk8)" height="224.416" id="md.log.Logger" style="stroke:#333333;stroke-width:1.5;" width="338" x="32" y="281"/><ellipse cx="177.25" cy="297" fill="#ADD1B2" rx="11" ry="11" style="stroke:#333333;stroke-width:1.0;"/><path d="M180.2231,302.6431 Q179.6421,302.9419 179.0029,303.0913 Q178.3638,303.2407 177.6582,303.2407 Q175.1514,303.2407 173.8315,301.5889 Q172.5117,299.937 172.5117,296.8159 Q172.5117,293.6865 173.8315,292.0347 Q175.1514,290.3828 177.6582,290.3828 Q178.3638,290.3828 179.0112,290.5322 Q179.6587,290.6816 180.2231,290.9805 L180.2231,293.7031 Q179.5923,293.1221 178.9988,292.8523 Q178.4053,292.5825 177.7744,292.5825 Q176.4297,292.5825 175.7449,293.6492 Q175.0601,294.7158 175.0601,296.8159 Q175.0601,298.9077 175.7449,299.9744 Q176.4297,301.041 177.7744,301.041 Q178.4053,301.041 178.9988,300.7712 Q179.5923,300.5015 180.2231,299.9204 Z " fill="#000000"/><text fill="#000000" font-family="sans-serif" font-size="12" lengthAdjust="spacing" textLength="39" x="197.75" y="301.5352">Logger</text><line style="stroke:#333333;stroke-width:1.5;" x1="33" x2="369" y1="313" y2="313"/><rect fill="none" height="6" style="stroke:#C82930;stroke-width:1.0;" width="6" x="40" y="321"/><text fill="#000000" font-family="sans-serif" font-size="11" lengthAdjust="spacing" textLength="58" x="52" y="327.6348">stream: str</text><rect fill="none" height="6" style="stroke:#C82930;stroke-width:1.0;" width="6" x="40" y="333.9551"/><text fill="#000000" font-family="sans-serif" font-size="11" lengthAdjust="spacing" textLength="63" x="52" y="340.5898">channel: str</text><rect fill="none" height="6" style="stroke:#C82930;stroke-width:1.0;" width="6" x="40" y="346.9102"/><text fill="#000000" font-family="sans-serif" font-size="11" lengthAdjust="spacing" textLength="80" x="52" y="353.5449">log_format: str</text><rect fill="none" height="6" style="stroke:#C82930;stroke-width:1.0;" width="6" x="40" y="359.8652"/><text fill="#000000" font-family="sans-serif" font-size="11" lengthAdjust="spacing" textLength="86" x="52" y="366.5">date_format: str</text><line style="stroke:#333333;stroke-width:1.0;" x1="33" x2="369" y1="372.8203" y2="372.8203"/><ellipse cx="43" cy="383.8203" fill="#84BE84" rx="3" ry="3" style="stroke:#038048;stroke-width:1.0;"/><text fill="#000000" font-family="sans-serif" font-size="11" lengthAdjust="spacing" textLength="303" x="52" y="387.4551">emergency (message: str, context: dict = None) -&gt; None</text><ellipse cx="43" cy="396.7754" fill="#84BE84" rx="3" ry="3" style="stroke:#038048;stroke-width:1.0;"/><text fill="#000000" font-family="sans-serif" font-size="11" lengthAdjust="spacing" textLength="268" x="52" y="400.4102">alert (message: str, context: dict = None) -&gt; None</text><ellipse cx="43" cy="409.7305" fill="#84BE84" rx="3" ry="3" style="stroke:#038048;stroke-width:1.0;"/><text fill="#000000" font-family="sans-serif" font-size="11" lengthAdjust="spacing" textLength="280" x="52" y="413.3652">critical (message: str, context: dict = None) -&gt; None</text><ellipse cx="43" cy="422.6855" fill="#84BE84" rx="3" ry="3" style="stroke:#038048;stroke-width:1.0;"/><text fill="#000000" font-family="sans-serif" font-size="11" lengthAdjust="spacing" textLength="272" x="52" y="426.3203">error (message: str, context: dict = None) -&gt; None</text><ellipse cx="43" cy="435.6406" fill="#84BE84" rx="3" ry="3" style="stroke:#038048;stroke-width:1.0;"/><text fill="#000000" font-family="sans-serif" font-size="11" lengthAdjust="spacing" textLength="287" x="52" y="439.2754">warning (message: str, context: dict = None) -&gt; None</text><ellipse cx="43" cy="448.5957" fill="#84BE84" rx="3" ry="3" style="stroke:#038048;stroke-width:1.0;"/><text fill="#000000" font-family="sans-serif" font-size="11" lengthAdjust="spacing" textLength="277" x="52" y="452.2305">notice (message: str, context: dict = None) -&gt; None</text><ellipse cx="43" cy="461.5508" fill="#84BE84" rx="3" ry="3" style="stroke:#038048;stroke-width:1.0;"/><text fill="#000000" font-family="sans-serif" font-size="11" lengthAdjust="spacing" textLength="265" x="52" y="465.1855">info (message: str, context: dict = None) -&gt; None</text><ellipse cx="43" cy="474.5059" fill="#84BE84" rx="3" ry="3" style="stroke:#038048;stroke-width:1.0;"/><text fill="#000000" font-family="sans-serif" font-size="11" lengthAdjust="spacing" textLength="278" x="52" y="478.1406">debug (message: str, context: dict = None) -&gt; None</text><line style="stroke:#333333;stroke-width:1.0;" x1="33" x2="369" y1="484.4609" y2="484.4609"/><ellipse cx="43" cy="495.4609" fill="#84BE84" rx="3" ry="3" style="stroke:#038048;stroke-width:1.0;"/><text fill="#000000" font-family="sans-serif" font-size="11" lengthAdjust="spacing" textLength="312" x="52" y="499.0957">log (level: str, message: str, context: dict = None) -&gt; None</text><!--MD5=[b34a15fde0383a83f324498c3f56a89c]
reverse link psr.log.LoggerInterface to md.log.Logger--><path d="M201,226.19 C201,226.19 201,280.69 201,280.69 " fill="none" id="psr.log.LoggerInterface-backto-md.log.Logger" style="stroke:#333333;stroke-width:1.0;stroke-dasharray:7.0,7.0;"/><polygon fill="none" points="194,226.19,201,206.19,208,226.19,194,226.19" style="stroke:#333333;stroke-width:1.0;"/><!--MD5=[bde487007e8c86529c5573e3080ba7a9]
@startuml

skinparam class {
  BackgroundColor #ebebeb
  ArrowColor      #333
  BorderColor     #333
}

skinparam lineType ortho

package psr.log {
  interface psr.log.LoggerInterface {
    + emergency (message: str, context: dict = None) -> None
    + alert (message: str, context: dict = None) -> None
    + critical (message: str, context: dict = None) -> None
    + error (message: str, context: dict = None) -> None
    + warning (message: str, context: dict = None) -> None
    + notice (message: str, context: dict = None) -> None
    + info (message: str, context: dict = None) -> None
    + debug (message: str, context: dict = None) -> None
    - - -
    + log (level: str, message: str, context: dict = None) -> None
  }
}

package md.log {
  class md.log.Logger implements psr.log.LoggerInterface {
    - stream: str
    - channel: str
    - log_format: str
    - date_format: str
    - - -
    + emergency (message: str, context: dict = None) -> None
    + alert (message: str, context: dict = None) -> None
    + critical (message: str, context: dict = None) -> None
    + error (message: str, context: dict = None) -> None
    + warning (message: str, context: dict = None) -> None
    + notice (message: str, context: dict = None) -> None
    + info (message: str, context: dict = None) -> None
    + debug (message: str, context: dict = None) -> None
    - - -
    + log (level: str, message: str, context: dict = None) -> None
  }
}

@enduml

PlantUML version 1.2022.0(Tue Jan 11 19:16:42 MSK 2022)
(GPL source distribution)
Java Runtime: OpenJDK Runtime Environment
JVM: OpenJDK 64-Bit Server VM
Default Encoding: UTF-8
Language: ru
Country: RU
--></g></svg>