<?xml version="1.0" encoding="UTF-8" standalone="no"?><svg xmlns="http://www.w3.org/2000/svg" xmlns:xlink="http://www.w3.org/1999/xlink" contentScriptType="application/ecmascript" contentStyleType="text/css" height="563.4px" preserveAspectRatio="none" style="width:504px;height:563px;background:#FFFFFF;" version="1.1" viewBox="0 0 504 563" width="504px" zoomAndPan="magnify"><defs><filter height="300%" id="fdwrrs1t0nq6o" width="300%" x="-1" y="-1"><feGaussianBlur result="blurOut" stdDeviation="1.2"/><feColorMatrix in="blurOut" result="blurOut2" type="matrix" values="0 0 0 0 0 0 0 0 0 0 0 0 0 0 0 0 0 0 .4 0"/><feOffset dx="2.4" dy="2.4" in="blurOut2" result="blurOut3"/><feBlend in="SourceGraphic" in2="blurOut3" mode="normal"/></filter></defs><g><!--MD5=[4dee29f85b217686b3aafe3136fb924c]
cluster psr.log--><polygon fill="#FFFFFF" filter="url(#fdwrrs1t0nq6o)" points="97.2,3.6,130.2,3.6,134.4,17.093,319.2,17.093,319.2,133.2,97.2,133.2,97.2,3.6" style="stroke:#000000;stroke-width:0.8999999999999999;"/><line style="stroke:#000000;stroke-width:0.8999999999999999;" x1="97.2" x2="134.4" y1="17.093" y2="17.093"/><text fill="#000000" font-family="sans-serif" font-size="8.4" font-weight="bold" lengthAdjust="spacing" textLength="29.4" x="99.6" y="12.9211">psr.log</text><!--MD5=[c6db52c943aa4e255235ac878148ce84]
cluster md.log--><polygon fill="#FFFFFF" filter="url(#fdwrrs1t0nq6o)" points="9.6,147.6,42.6,147.6,46.8,161.093,493.8,161.093,493.8,559.2,9.6,559.2,9.6,147.6" style="stroke:#000000;stroke-width:0.8999999999999999;"/><line style="stroke:#000000;stroke-width:0.8999999999999999;" x1="9.6" x2="46.8" y1="161.093" y2="161.093"/><text fill="#000000" font-family="sans-serif" font-size="8.4" font-weight="bold" lengthAdjust="spacing" textLength="29.4" x="12" y="156.9211">md.log</text><!--MD5=[f2739334762f199a60e808420ae2011e]
class psr.log.LoggerInterface--><rect codeLine="11" fill="#EBEBEB" filter="url(#fdwrrs1t0nq6o)" height="98.7574" id="psr.log.LoggerInterface" style="stroke:#333333;stroke-width:0.8999999999999999;" width="202.8" x="106.8" y="24.6"/><ellipse cx="178.95" cy="34.2" fill="#B4A7E5" rx="6.6" ry="6.6" style="stroke:#333333;stroke-width:0.6;"/><path d="M176.5066,31.6591 L176.5066,30.3642 L180.9343,30.3642 L180.9343,31.6591 L179.4551,31.6591 L179.4551,36.5051 L180.9343,36.5051 L180.9343,37.8 L176.5066,37.8 L176.5066,36.5051 L177.9858,36.5051 L177.9858,31.6591 Z " fill="#000000"/><text fill="#000000" font-family="sans-serif" font-size="7.2" font-style="italic" lengthAdjust="spacing" textLength="53.4" x="191.25" y="36.9211">LoggerInterface</text><line style="stroke:#333333;stroke-width:0.8999999999999999;" x1="107.4" x2="309" y1="43.8" y2="43.8"/><ellipse cx="113.4" cy="50.4" fill="#84BE84" rx="1.8" ry="1.8" style="stroke:#038048;stroke-width:0.6;"/><text fill="#000000" font-family="sans-serif" font-size="6.6" lengthAdjust="spacing" textLength="181.8" x="118.8" y="52.5809">emergency (message: str, context: dict = None) -&gt; None</text><ellipse cx="113.4" cy="58.173" fill="#84BE84" rx="1.8" ry="1.8" style="stroke:#038048;stroke-width:0.6;"/><text fill="#000000" font-family="sans-serif" font-size="6.6" lengthAdjust="spacing" textLength="160.8" x="118.8" y="60.3539">alert (message: str, context: dict = None) -&gt; None</text><ellipse cx="113.4" cy="65.9461" fill="#84BE84" rx="1.8" ry="1.8" style="stroke:#038048;stroke-width:0.6;"/><text fill="#000000" font-family="sans-serif" font-size="6.6" lengthAdjust="spacing" textLength="168" x="118.8" y="68.127">critical (message: str, context: dict = None) -&gt; None</text><ellipse cx="113.4" cy="73.7191" fill="#84BE84" rx="1.8" ry="1.8" style="stroke:#038048;stroke-width:0.6;"/><text fill="#000000" font-family="sans-serif" font-size="6.6" lengthAdjust="spacing" textLength="163.2" x="118.8" y="75.9">error (message: str, context: dict = None) -&gt; None</text><ellipse cx="113.4" cy="81.4922" fill="#84BE84" rx="1.8" ry="1.8" style="stroke:#038048;stroke-width:0.6;"/><text fill="#000000" font-family="sans-serif" font-size="6.6" lengthAdjust="spacing" textLength="172.2" x="118.8" y="83.673">warning (message: str, context: dict = None) -&gt; None</text><ellipse cx="113.4" cy="89.2652" fill="#84BE84" rx="1.8" ry="1.8" style="stroke:#038048;stroke-width:0.6;"/><text fill="#000000" font-family="sans-serif" font-size="6.6" lengthAdjust="spacing" textLength="166.2" x="118.8" y="91.4461">notice (message: str, context: dict = None) -&gt; None</text><ellipse cx="113.4" cy="97.0383" fill="#84BE84" rx="1.8" ry="1.8" style="stroke:#038048;stroke-width:0.6;"/><text fill="#000000" font-family="sans-serif" font-size="6.6" lengthAdjust="spacing" textLength="159" x="118.8" y="99.2191">info (message: str, context: dict = None) -&gt; None</text><ellipse cx="113.4" cy="104.8113" fill="#84BE84" rx="1.8" ry="1.8" style="stroke:#038048;stroke-width:0.6;"/><text fill="#000000" font-family="sans-serif" font-size="6.6" lengthAdjust="spacing" textLength="166.8" x="118.8" y="106.9922">debug (message: str, context: dict = None) -&gt; None</text><line style="stroke:#333333;stroke-width:0.6;" x1="107.4" x2="309" y1="110.7844" y2="110.7844"/><ellipse cx="113.4" cy="117.3844" fill="#84BE84" rx="1.8" ry="1.8" style="stroke:#038048;stroke-width:0.6;"/><text fill="#000000" font-family="sans-serif" font-size="6.6" lengthAdjust="spacing" textLength="187.2" x="118.8" y="119.5652">log (level: str, message: str, context: dict = None) -&gt; None</text><!--MD5=[aa890edfa53d487f7be5005990873fd1]
class md.log.Logger--><rect codeLine="26" fill="#EBEBEB" filter="url(#fdwrrs1t0nq6o)" height="119.1035" id="md.log.Logger" style="stroke:#333333;stroke-width:0.8999999999999999;" width="202.8" x="106.8" y="168.6"/><ellipse cx="193.95" cy="178.2" fill="#ADD1B2" rx="6.6" ry="6.6" style="stroke:#333333;stroke-width:0.6;"/><path d="M195.7339,181.5858 Q195.3853,181.7651 195.0018,181.8548 Q194.6183,181.9444 194.1949,181.9444 Q192.6908,181.9444 191.8989,180.9533 Q191.107,179.9622 191.107,178.0896 Q191.107,176.2119 191.8989,175.2208 Q192.6908,174.2297 194.1949,174.2297 Q194.6183,174.2297 195.0067,174.3193 Q195.3952,174.409 195.7339,174.5883 L195.7339,176.2219 Q195.3554,175.8732 194.9993,175.7114 Q194.6432,175.5495 194.2646,175.5495 Q193.4578,175.5495 193.0469,176.1895 Q192.636,176.8295 192.636,178.0896 Q192.636,179.3446 193.0469,179.9846 Q193.4578,180.6246 194.2646,180.6246 Q194.6432,180.6246 194.9993,180.4627 Q195.3554,180.3009 195.7339,179.9522 Z " fill="#000000"/><text fill="#000000" font-family="sans-serif" font-size="7.2" lengthAdjust="spacing" textLength="23.4" x="206.25" y="180.9211">Logger</text><line style="stroke:#333333;stroke-width:0.8999999999999999;" x1="107.4" x2="309" y1="187.8" y2="187.8"/><rect fill="none" height="3.6" style="stroke:#C82930;stroke-width:0.6;" width="3.6" x="111.6" y="192.6"/><text fill="#000000" font-family="sans-serif" font-size="6.6" lengthAdjust="spacing" textLength="96.6" x="118.8" y="196.5809">patch_list: List[PatchInterface]</text><rect fill="none" height="3.6" style="stroke:#C82930;stroke-width:0.6;" width="3.6" x="111.6" y="200.373"/><text fill="#000000" font-family="sans-serif" font-size="6.6" lengthAdjust="spacing" textLength="91.8" x="118.8" y="204.3539">keep_list: List[KeepInterface]</text><line style="stroke:#333333;stroke-width:0.6;" x1="107.4" x2="309" y1="208.1461" y2="208.1461"/><ellipse cx="113.4" cy="214.7461" fill="#84BE84" rx="1.8" ry="1.8" style="stroke:#038048;stroke-width:0.6;"/><text fill="#000000" font-family="sans-serif" font-size="6.6" lengthAdjust="spacing" textLength="181.8" x="118.8" y="216.927">emergency (message: str, context: dict = None) -&gt; None</text><ellipse cx="113.4" cy="222.5191" fill="#84BE84" rx="1.8" ry="1.8" style="stroke:#038048;stroke-width:0.6;"/><text fill="#000000" font-family="sans-serif" font-size="6.6" lengthAdjust="spacing" textLength="160.8" x="118.8" y="224.7">alert (message: str, context: dict = None) -&gt; None</text><ellipse cx="113.4" cy="230.2922" fill="#84BE84" rx="1.8" ry="1.8" style="stroke:#038048;stroke-width:0.6;"/><text fill="#000000" font-family="sans-serif" font-size="6.6" lengthAdjust="spacing" textLength="168" x="118.8" y="232.473">critical (message: str, context: dict = None) -&gt; None</text><ellipse cx="113.4" cy="238.0652" fill="#84BE84" rx="1.8" ry="1.8" style="stroke:#038048;stroke-width:0.6;"/><text fill="#000000" font-family="sans-serif" font-size="6.6" lengthAdjust="spacing" textLength="163.2" x="118.8" y="240.2461">error (message: str, context: dict = None) -&gt; None</text><ellipse cx="113.4" cy="245.8383" fill="#84BE84" rx="1.8" ry="1.8" style="stroke:#038048;stroke-width:0.6;"/><text fill="#000000" font-family="sans-serif" font-size="6.6" lengthAdjust="spacing" textLength="172.2" x="118.8" y="248.0191">warning (message: str, context: dict = None) -&gt; None</text><ellipse cx="113.4" cy="253.6113" fill="#84BE84" rx="1.8" ry="1.8" style="stroke:#038048;stroke-width:0.6;"/><text fill="#000000" font-family="sans-serif" font-size="6.6" lengthAdjust="spacing" textLength="166.2" x="118.8" y="255.7922">notice (message: str, context: dict = None) -&gt; None</text><ellipse cx="113.4" cy="261.3844" fill="#84BE84" rx="1.8" ry="1.8" style="stroke:#038048;stroke-width:0.6;"/><text fill="#000000" font-family="sans-serif" font-size="6.6" lengthAdjust="spacing" textLength="159" x="118.8" y="263.5652">info (message: str, context: dict = None) -&gt; None</text><ellipse cx="113.4" cy="269.1574" fill="#84BE84" rx="1.8" ry="1.8" style="stroke:#038048;stroke-width:0.6;"/><text fill="#000000" font-family="sans-serif" font-size="6.6" lengthAdjust="spacing" textLength="166.8" x="118.8" y="271.3383">debug (message: str, context: dict = None) -&gt; None</text><line style="stroke:#333333;stroke-width:0.6;" x1="107.4" x2="309" y1="275.1305" y2="275.1305"/><ellipse cx="113.4" cy="281.7305" fill="#84BE84" rx="1.8" ry="1.8" style="stroke:#038048;stroke-width:0.6;"/><text fill="#000000" font-family="sans-serif" font-size="6.6" lengthAdjust="spacing" textLength="187.2" x="118.8" y="283.9113">log (level: str, message: str, context: dict = None) -&gt; None</text><!--MD5=[005a7d44e06e8962638631cb6a8f07ae]
class md.log.KeepInterface--><rect codeLine="42" fill="#EBEBEB" filter="url(#fdwrrs1t0nq6o)" height="36.573" id="md.log.KeepInterface" style="stroke:#333333;stroke-width:0.8999999999999999;" width="102" x="353.4" y="210"/><ellipse cx="378.06" cy="219.6" fill="#B4A7E5" rx="6.6" ry="6.6" style="stroke:#333333;stroke-width:0.6;"/><path d="M375.6166,217.0591 L375.6166,215.7642 L380.0443,215.7642 L380.0443,217.0591 L378.5651,217.0591 L378.5651,221.9051 L380.0443,221.9051 L380.0443,223.2 L375.6166,223.2 L375.6166,221.9051 L377.0958,221.9051 L377.0958,217.0591 Z " fill="#000000"/><text fill="#000000" font-family="sans-serif" font-size="7.2" font-style="italic" lengthAdjust="spacing" textLength="48" x="389.94" y="222.3211">KeepInterface</text><line style="stroke:#333333;stroke-width:0.8999999999999999;" x1="354" x2="454.8" y1="229.2" y2="229.2"/><line style="stroke:#333333;stroke-width:0.8999999999999999;" x1="354" x2="454.8" y1="234" y2="234"/><ellipse cx="360" cy="240.6" fill="#84BE84" rx="1.8" ry="1.8" style="stroke:#038048;stroke-width:0.6;"/><text fill="#000000" font-family="sans-serif" font-size="6.6" lengthAdjust="spacing" textLength="86.4" x="365.4" y="242.7809">keep(record: dict) -&gt; None</text><!--MD5=[33bde8186f61ee692785868e3fc20301]
class md.log.PatchInterface--><rect codeLine="46" fill="#EBEBEB" filter="url(#fdwrrs1t0nq6o)" height="36.573" id="md.log.PatchInterface" style="stroke:#333333;stroke-width:0.8999999999999999;" width="100.2" x="146.7" y="338.1"/><ellipse cx="170.28" cy="347.7" fill="#B4A7E5" rx="6.6" ry="6.6" style="stroke:#333333;stroke-width:0.6;"/><path d="M167.8366,345.1591 L167.8366,343.8642 L172.2643,343.8642 L172.2643,345.1591 L170.7851,345.1591 L170.7851,350.0051 L172.2643,350.0051 L172.2643,351.3 L167.8366,351.3 L167.8366,350.0051 L169.3158,350.0051 L169.3158,345.1591 Z " fill="#000000"/><text fill="#000000" font-family="sans-serif" font-size="7.2" font-style="italic" lengthAdjust="spacing" textLength="48.6" x="181.92" y="350.4211">PatchInterface</text><line style="stroke:#333333;stroke-width:0.8999999999999999;" x1="147.3" x2="246.3" y1="357.3" y2="357.3"/><line style="stroke:#333333;stroke-width:0.8999999999999999;" x1="147.3" x2="246.3" y1="362.1" y2="362.1"/><ellipse cx="153.3" cy="368.7" fill="#84BE84" rx="1.8" ry="1.8" style="stroke:#038048;stroke-width:0.6;"/><text fill="#000000" font-family="sans-serif" font-size="6.6" lengthAdjust="spacing" textLength="84.6" x="158.7" y="370.8809">patch(record: dict) -&gt; dict</text><!--MD5=[3e9b7dee2a5d411dd03b801e4be4fb1e]
class md.log.FormatInterface--><rect codeLine="50" fill="#EBEBEB" filter="url(#fdwrrs1t0nq6o)" height="36.573" id="md.log.FormatInterface" style="stroke:#333333;stroke-width:0.8999999999999999;" width="100.8" x="383.4" y="424.8"/><ellipse cx="404.82" cy="434.4" fill="#B4A7E5" rx="6.6" ry="6.6" style="stroke:#333333;stroke-width:0.6;"/><path d="M402.3766,431.8591 L402.3766,430.5642 L406.8043,430.5642 L406.8043,431.8591 L405.3251,431.8591 L405.3251,436.7051 L406.8043,436.7051 L406.8043,438 L402.3766,438 L402.3766,436.7051 L403.8558,436.7051 L403.8558,431.8591 Z " fill="#000000"/><text fill="#000000" font-family="sans-serif" font-size="7.2" font-style="italic" lengthAdjust="spacing" textLength="54" x="415.98" y="437.1211">FormatInterface</text><line style="stroke:#333333;stroke-width:0.8999999999999999;" x1="384" x2="483.6" y1="444" y2="444"/><line style="stroke:#333333;stroke-width:0.8999999999999999;" x1="384" x2="483.6" y1="448.8" y2="448.8"/><ellipse cx="390" cy="455.4" fill="#84BE84" rx="1.8" ry="1.8" style="stroke:#038048;stroke-width:0.6;"/><text fill="#000000" font-family="sans-serif" font-size="6.6" lengthAdjust="spacing" textLength="85.2" x="395.4" y="457.5809">format(record: dict) -&gt; str</text><!--MD5=[79c10666335c6769e10ced556ab2f6c9]
class md.log.Format--><rect codeLine="54" fill="#EBEBEB" filter="url(#fdwrrs1t0nq6o)" height="52.1191" id="md.log.Format" style="stroke:#333333;stroke-width:0.8999999999999999;" width="100.8" x="383.4" y="497.4"/><ellipse cx="419.25" cy="507" fill="#ADD1B2" rx="6.6" ry="6.6" style="stroke:#333333;stroke-width:0.6;"/><path d="M421.0339,510.3858 Q420.6853,510.5651 420.3018,510.6548 Q419.9183,510.7444 419.4949,510.7444 Q417.9908,510.7444 417.1989,509.7533 Q416.407,508.7622 416.407,506.8896 Q416.407,505.0119 417.1989,504.0208 Q417.9908,503.0297 419.4949,503.0297 Q419.9183,503.0297 420.3067,503.1193 Q420.6952,503.209 421.0339,503.3883 L421.0339,505.0219 Q420.6554,504.6732 420.2993,504.5114 Q419.9432,504.3495 419.5646,504.3495 Q418.7578,504.3495 418.3469,504.9895 Q417.936,505.6295 417.936,506.8896 Q417.936,508.1446 418.3469,508.7846 Q418.7578,509.4246 419.5646,509.4246 Q419.9432,509.4246 420.2993,509.2627 Q420.6554,509.1009 421.0339,508.7522 Z " fill="#000000"/><text fill="#000000" font-family="sans-serif" font-size="7.2" lengthAdjust="spacing" textLength="24" x="431.55" y="509.7211">Format</text><line style="stroke:#333333;stroke-width:0.8999999999999999;" x1="384" x2="483.6" y1="516.6" y2="516.6"/><rect fill="none" height="3.6" style="stroke:#C82930;stroke-width:0.6;" width="3.6" x="388.2" y="521.4"/><text fill="#000000" font-family="sans-serif" font-size="6.6" lengthAdjust="spacing" textLength="59.4" x="395.4" y="525.3809">record_format: str</text><rect fill="none" height="3.6" style="stroke:#C82930;stroke-width:0.6;" width="3.6" x="388.2" y="529.173"/><text fill="#000000" font-family="sans-serif" font-size="6.6" lengthAdjust="spacing" textLength="51.6" x="395.4" y="533.1539">date_format: str</text><line style="stroke:#333333;stroke-width:0.6;" x1="384" x2="483.6" y1="536.9461" y2="536.9461"/><ellipse cx="390" cy="543.5461" fill="#84BE84" rx="1.8" ry="1.8" style="stroke:#038048;stroke-width:0.6;"/><text fill="#000000" font-family="sans-serif" font-size="6.6" lengthAdjust="spacing" textLength="85.2" x="395.4" y="545.727">format(record: dict) -&gt; str</text><!--MD5=[ff2ecfd31df15036c70fd59e8b140851]
class md.log.ThreadPidPatch--><rect codeLine="61" fill="#EBEBEB" filter="url(#fdwrrs1t0nq6o)" height="36.573" id="md.log.ThreadPidPatch" style="stroke:#333333;stroke-width:0.8999999999999999;" width="100.2" x="19.5" y="424.8"/><ellipse cx="40.38" cy="434.4" fill="#ADD1B2" rx="6.6" ry="6.6" style="stroke:#333333;stroke-width:0.6;"/><path d="M42.1639,437.7858 Q41.8153,437.9651 41.4318,438.0548 Q41.0483,438.1444 40.6249,438.1444 Q39.1208,438.1444 38.3289,437.1533 Q37.537,436.1622 37.537,434.2896 Q37.537,432.4119 38.3289,431.4208 Q39.1208,430.4297 40.6249,430.4297 Q41.0483,430.4297 41.4367,430.5193 Q41.8252,430.609 42.1639,430.7883 L42.1639,432.4219 Q41.7854,432.0732 41.4293,431.9114 Q41.0732,431.7495 40.6946,431.7495 Q39.8878,431.7495 39.4769,432.3895 Q39.066,433.0295 39.066,434.2896 Q39.066,435.5446 39.4769,436.1846 Q39.8878,436.8246 40.6946,436.8246 Q41.0732,436.8246 41.4293,436.6627 Q41.7854,436.5009 42.1639,436.1522 Z " fill="#000000"/><text fill="#000000" font-family="sans-serif" font-size="7.2" lengthAdjust="spacing" textLength="54.6" x="51.42" y="437.1211">ThreadPidPatch</text><line style="stroke:#333333;stroke-width:0.8999999999999999;" x1="20.1" x2="119.1" y1="444" y2="444"/><line style="stroke:#333333;stroke-width:0.8999999999999999;" x1="20.1" x2="119.1" y1="448.8" y2="448.8"/><ellipse cx="26.1" cy="455.4" fill="#84BE84" rx="1.8" ry="1.8" style="stroke:#038048;stroke-width:0.6;"/><text fill="#000000" font-family="sans-serif" font-size="6.6" lengthAdjust="spacing" textLength="84.6" x="31.5" y="457.5809">patch(record: dict) -&gt; dict</text><!--MD5=[e2d5a791177be8aab161b42b46c03703]
class md.log.FormatExceptionPatch--><rect codeLine="64" fill="#EBEBEB" filter="url(#fdwrrs1t0nq6o)" height="36.573" id="md.log.FormatExceptionPatch" style="stroke:#333333;stroke-width:0.8999999999999999;" width="100.2" x="140.7" y="424.8"/><ellipse cx="151.86" cy="434.4" fill="#ADD1B2" rx="6.6" ry="6.6" style="stroke:#333333;stroke-width:0.6;"/><path d="M153.6439,437.7858 Q153.2953,437.9651 152.9118,438.0548 Q152.5283,438.1444 152.1049,438.1444 Q150.6008,438.1444 149.8089,437.1533 Q149.017,436.1622 149.017,434.2896 Q149.017,432.4119 149.8089,431.4208 Q150.6008,430.4297 152.1049,430.4297 Q152.5283,430.4297 152.9167,430.5193 Q153.3052,430.609 153.6439,430.7883 L153.6439,432.4219 Q153.2654,432.0732 152.9093,431.9114 Q152.5532,431.7495 152.1746,431.7495 Q151.3678,431.7495 150.9569,432.3895 Q150.546,433.0295 150.546,434.2896 Q150.546,435.5446 150.9569,436.1846 Q151.3678,436.8246 152.1746,436.8246 Q152.5532,436.8246 152.9093,436.6627 Q153.2654,436.5009 153.6439,436.1522 Z " fill="#000000"/><text fill="#000000" font-family="sans-serif" font-size="7.2" lengthAdjust="spacing" textLength="76.2" x="160.74" y="437.1211">FormatExceptionPatch</text><line style="stroke:#333333;stroke-width:0.8999999999999999;" x1="141.3" x2="240.3" y1="444" y2="444"/><line style="stroke:#333333;stroke-width:0.8999999999999999;" x1="141.3" x2="240.3" y1="448.8" y2="448.8"/><ellipse cx="147.3" cy="455.4" fill="#84BE84" rx="1.8" ry="1.8" style="stroke:#038048;stroke-width:0.6;"/><text fill="#000000" font-family="sans-serif" font-size="6.6" lengthAdjust="spacing" textLength="84.6" x="152.7" y="457.5809">patch(record: dict) -&gt; dict</text><!--MD5=[bbd4da971095b97d6822c721aeecd958]
class md.log.KeepStream--><rect codeLine="68" fill="#EBEBEB" filter="url(#fdwrrs1t0nq6o)" height="64.6922" id="md.log.KeepStream" style="stroke:#333333;stroke-width:0.8999999999999999;" width="147.6" x="333.6" y="324"/><ellipse cx="383.85" cy="333.6" fill="#ADD1B2" rx="6.6" ry="6.6" style="stroke:#333333;stroke-width:0.6;"/><path d="M385.6339,336.9858 Q385.2853,337.1651 384.9018,337.2548 Q384.5183,337.3444 384.0949,337.3444 Q382.5908,337.3444 381.7989,336.3533 Q381.007,335.3622 381.007,333.4896 Q381.007,331.6119 381.7989,330.6208 Q382.5908,329.6297 384.0949,329.6297 Q384.5183,329.6297 384.9067,329.7193 Q385.2952,329.809 385.6339,329.9883 L385.6339,331.6219 Q385.2554,331.2732 384.8993,331.1114 Q384.5432,330.9495 384.1646,330.9495 Q383.3578,330.9495 382.9469,331.5895 Q382.536,332.2295 382.536,333.4896 Q382.536,334.7446 382.9469,335.3846 Q383.3578,336.0246 384.1646,336.0246 Q384.5432,336.0246 384.8993,335.8627 Q385.2554,335.7009 385.6339,335.3522 Z " fill="#000000"/><text fill="#000000" font-family="sans-serif" font-size="7.2" lengthAdjust="spacing" textLength="42" x="396.15" y="336.3211">KeepStream</text><line style="stroke:#333333;stroke-width:0.8999999999999999;" x1="334.2" x2="480.6" y1="343.2" y2="343.2"/><rect fill="none" height="3.6" style="stroke:#C82930;stroke-width:0.6;" width="3.6" x="338.4" y="348"/><text fill="#000000" font-family="sans-serif" font-size="6.6" lengthAdjust="spacing" textLength="76.2" x="345.6" y="351.9809">format: FormatInterface</text><rect fill="none" height="3.6" style="stroke:#C82930;stroke-width:0.6;" width="3.6" x="338.4" y="355.773"/><text fill="#000000" font-family="sans-serif" font-size="6.6" lengthAdjust="spacing" textLength="62.4" x="345.6" y="359.7539">stream_list: List[IO]</text><line style="stroke:#333333;stroke-width:0.6;" x1="334.2" x2="480.6" y1="363.5461" y2="363.5461"/><ellipse cx="340.2" cy="370.1461" fill="#84BE84" rx="1.8" ry="1.8" style="stroke:#038048;stroke-width:0.6;"/><text fill="#000000" font-family="sans-serif" font-size="6.6" lengthAdjust="spacing" text-decoration="underline" textLength="132" x="345.6" y="372.327">from_file(filename_list: List[str]) -&gt; None</text><line style="stroke:#333333;stroke-width:0.6;" x1="334.2" x2="480.6" y1="376.1191" y2="376.1191"/><ellipse cx="340.2" cy="382.7191" fill="#84BE84" rx="1.8" ry="1.8" style="stroke:#038048;stroke-width:0.6;"/><text fill="#000000" font-family="sans-serif" font-size="6.6" lengthAdjust="spacing" textLength="86.4" x="345.6" y="384.9">keep(record: dict) -&gt; None</text><!--MD5=[835594d23cafa0d0b65ba6942f21e1e7]
class md.log.PidPatch--><rect codeLine="77" fill="#EBEBEB" filter="url(#fdwrrs1t0nq6o)" height="36.573" id="md.log.PidPatch" style="stroke:#333333;stroke-width:0.8999999999999999;" width="100.2" x="261.9" y="424.8"/><ellipse cx="294.75" cy="434.4" fill="#ADD1B2" rx="6.6" ry="6.6" style="stroke:#333333;stroke-width:0.6;"/><path d="M296.5339,437.7858 Q296.1853,437.9651 295.8018,438.0548 Q295.4183,438.1444 294.9949,438.1444 Q293.4908,438.1444 292.6989,437.1533 Q291.907,436.1622 291.907,434.2896 Q291.907,432.4119 292.6989,431.4208 Q293.4908,430.4297 294.9949,430.4297 Q295.4183,430.4297 295.8067,430.5193 Q296.1952,430.609 296.5339,430.7883 L296.5339,432.4219 Q296.1554,432.0732 295.7993,431.9114 Q295.4432,431.7495 295.0646,431.7495 Q294.2578,431.7495 293.8469,432.3895 Q293.436,433.0295 293.436,434.2896 Q293.436,435.5446 293.8469,436.1846 Q294.2578,436.8246 295.0646,436.8246 Q295.4432,436.8246 295.7993,436.6627 Q296.1554,436.5009 296.5339,436.1522 Z " fill="#000000"/><text fill="#000000" font-family="sans-serif" font-size="7.2" lengthAdjust="spacing" textLength="29.4" x="307.05" y="437.1211">PidPatch</text><line style="stroke:#333333;stroke-width:0.8999999999999999;" x1="262.5" x2="361.5" y1="444" y2="444"/><line style="stroke:#333333;stroke-width:0.8999999999999999;" x1="262.5" x2="361.5" y1="448.8" y2="448.8"/><ellipse cx="268.5" cy="455.4" fill="#84BE84" rx="1.8" ry="1.8" style="stroke:#038048;stroke-width:0.6;"/><text fill="#000000" font-family="sans-serif" font-size="6.6" lengthAdjust="spacing" textLength="84.6" x="273.9" y="457.5809">patch(record: dict) -&gt; dict</text><!--MD5=[b34a15fde0383a83f324498c3f56a89c]
reverse link psr.log.LoggerInterface to md.log.Logger--><path d="M208.2,135.738 C208.2,135.738 208.2,168.516 208.2,168.516 " fill="none" id="psr.log.LoggerInterface-backto-md.log.Logger" style="stroke:#333333;stroke-width:0.6;stroke-dasharray:7.0,7.0;"/><polygon fill="none" points="204,135.738,208.2,123.738,212.4,135.738,204,135.738" style="stroke:#333333;stroke-width:0.6;"/><!--MD5=[07a1042b45e854396271ce5d81a400aa]
reverse link md.log.FormatInterface to md.log.Format--><path d="M433.8,473.544 C433.8,473.544 433.8,497.37 433.8,497.37 " fill="none" id="md.log.FormatInterface-backto-md.log.Format" style="stroke:#333333;stroke-width:0.6;stroke-dasharray:7.0,7.0;"/><polygon fill="none" points="429.6,473.544,433.8,461.544,438,473.544,429.6,473.544" style="stroke:#333333;stroke-width:0.6;"/><!--MD5=[f0404b19825efd1761f37e9d6a717819]
reverse link md.log.PatchInterface to md.log.ThreadPidPatch--><path d="M134.514,356.4 C134.514,356.4 113.25,356.4 113.25,356.4 C113.25,356.4 113.25,399.264 113.25,424.716 " fill="none" id="md.log.PatchInterface-backto-md.log.ThreadPidPatch" style="stroke:#333333;stroke-width:0.6;stroke-dasharray:7.0,7.0;"/><polygon fill="none" points="134.514,352.2,146.514,356.4,134.514,360.6,134.514,352.2" style="stroke:#333333;stroke-width:0.6;"/><!--MD5=[c6bd34350b06307aaf64ce27b14355a5]
reverse link md.log.PatchInterface to md.log.FormatExceptionPatch--><path d="M193.8,386.784 C193.8,386.784 193.8,424.74 193.8,424.74 " fill="none" id="md.log.PatchInterface-backto-md.log.FormatExceptionPatch" style="stroke:#333333;stroke-width:0.6;stroke-dasharray:7.0,7.0;"/><polygon fill="none" points="189.6,386.784,193.8,374.784,198,386.784,189.6,386.784" style="stroke:#333333;stroke-width:0.6;"/><!--MD5=[a4bb7dcdead513312d694ae6018faf26]
reverse link md.log.KeepInterface to md.log.KeepStream--><path d="M404.4,258.654 C404.4,258.654 404.4,323.964 404.4,323.964 " fill="none" id="md.log.KeepInterface-backto-md.log.KeepStream" style="stroke:#333333;stroke-width:0.6;stroke-dasharray:7.0,7.0;"/><polygon fill="none" points="400.2,258.654,404.4,246.654,408.6,258.654,400.2,258.654" style="stroke:#333333;stroke-width:0.6;"/><!--MD5=[e08ecd0a0bbb62840fd6f4eadf1cae16]
reverse link md.log.PatchInterface to md.log.PidPatch--><path d="M243.9,386.85 C243.9,386.85 243.9,443.4 243.9,443.4 C243.9,443.4 251.586,443.4 261.792,443.4 " fill="none" id="md.log.PatchInterface-backto-md.log.PidPatch" style="stroke:#333333;stroke-width:0.6;stroke-dasharray:7.0,7.0;"/><polygon fill="none" points="239.7,386.85,243.9,374.85,248.1,386.85,239.7,386.85" style="stroke:#333333;stroke-width:0.6;"/><!--MD5=[bf1401379ca5604b37bdaef310e9cd5c]
link md.log.Logger to md.log.PatchInterface--><path codeLine="81" d="M196.8,295.236 C196.8,295.236 196.8,330.174 196.8,330.174 " fill="none" id="md.log.Logger-md.log.PatchInterface" style="stroke:#333333;stroke-width:0.6;"/><polygon fill="#333333" points="196.8,337.974,199.2,332.574,196.8,334.974,194.4,332.574,196.8,337.974" style="stroke:#333333;stroke-width:0.6;"/><line style="stroke:#333333;stroke-width:0.6;" x1="196.8" x2="196.8" y1="334.974" y2="330.174"/><polygon fill="#FFFFFF" points="196.8,288.036,194.4,291.636,196.8,295.236,199.2,291.636,196.8,288.036" style="stroke:#333333;stroke-width:0.6;"/><text fill="#000000" font-family="sans-serif" font-size="7.8" lengthAdjust="spacing" textLength="12" x="184.2" y="310.949">1:n</text><!--MD5=[aa00b291b8c89e53553a17ceb7668809]
link md.log.Logger to md.log.KeepInterface--><path codeLine="82" d="M316.95,228.6 C316.95,228.6 345.366,228.6 345.366,228.6 " fill="none" id="md.log.Logger-md.log.KeepInterface" style="stroke:#333333;stroke-width:0.6;"/><polygon fill="#333333" points="353.166,228.6,347.766,226.2,350.166,228.6,347.766,231,353.166,228.6" style="stroke:#333333;stroke-width:0.6;"/><line style="stroke:#333333;stroke-width:0.6;" x1="350.166" x2="345.366" y1="228.6" y2="228.6"/><polygon fill="#333333" points="309.75,228.6,313.35,231,316.95,228.6,313.35,226.2,309.75,228.6" style="stroke:#333333;stroke-width:0.6;"/><text fill="#000000" font-family="sans-serif" font-size="7.8" lengthAdjust="spacing" textLength="12" x="318.858" y="226.541">1:n</text><!--MD5=[c7888e052834a02bf2585c009c5c0ed0]
link md.log.KeepStream to md.log.FormatInterface--><path codeLine="83" d="M432.3,396.132 C432.3,396.132 432.3,416.946 432.3,416.946 " fill="none" id="md.log.KeepStream-md.log.FormatInterface" style="stroke:#333333;stroke-width:0.6;"/><polygon fill="#333333" points="432.3,424.746,434.7,419.346,432.3,421.746,429.9,419.346,432.3,424.746" style="stroke:#333333;stroke-width:0.6;"/><line style="stroke:#333333;stroke-width:0.6;" x1="432.3" x2="432.3" y1="421.746" y2="416.946"/><polygon fill="#FFFFFF" points="432.3,388.932,429.9,392.532,432.3,396.132,434.7,392.532,432.3,388.932" style="stroke:#333333;stroke-width:0.6;"/><text fill="#000000" font-family="sans-serif" font-size="7.8" lengthAdjust="spacing" textLength="12" x="419.7" y="404.783">1:1</text><!--MD5=[a766a7ac303c463993eb97927d734426]
@startuml

skinparam class {
  BackgroundColor #ebebeb
  ArrowColor      #333
  BorderColor     #333
}

skinparam lineType ortho

package psr.log {
  interface psr.log.LoggerInterface {
    + emergency (message: str, context: dict = None) -> None
    + alert (message: str, context: dict = None) -> None
    + critical (message: str, context: dict = None) -> None
    + error (message: str, context: dict = None) -> None
    + warning (message: str, context: dict = None) -> None
    + notice (message: str, context: dict = None) -> None
    + info (message: str, context: dict = None) -> None
    + debug (message: str, context: dict = None) -> None
    - - -
    + log (level: str, message: str, context: dict = None) -> None
  }
}

package md.log {
  class md.log.Logger implements psr.log.LoggerInterface {
    - patch_list: List[PatchInterface]
    - keep_list: List[KeepInterface]
    - - -
    + emergency (message: str, context: dict = None) -> None
    + alert (message: str, context: dict = None) -> None
    + critical (message: str, context: dict = None) -> None
    + error (message: str, context: dict = None) -> None
    + warning (message: str, context: dict = None) -> None
    + notice (message: str, context: dict = None) -> None
    + info (message: str, context: dict = None) -> None
    + debug (message: str, context: dict = None) -> None
    - - -
    + log (level: str, message: str, context: dict = None) -> None
  }

  interface md.log.KeepInterface {
    + keep(record: dict) -> None
  }

  interface md.log.PatchInterface {
    + patch(record: dict) -> dict
  }

  interface md.log.FormatInterface {
    + format(record: dict) -> str
  }

  class md.log.Format implements md.log.FormatInterface {
    - record_format: str
    - date_format: str
    - - -
    + format(record: dict) -> str
  }
  
  class md.log.ThreadPidPatch implements md.log.PatchInterface {
    + patch(record: dict) -> dict
  }
  class md.log.FormatExceptionPatch implements md.log.PatchInterface {
    + patch(record: dict) -> dict
  }

  class md.log.KeepStream implements md.log.KeepInterface {
    - format: FormatInterface
    - stream_list: List[IO]
    - - -
    + {static} from_file(filename_list: List[str]) -> None
    - - -
    + keep(record: dict) -> None
  }

  class md.log.PidPatch implements md.log.PatchInterface {
    + patch(record: dict) -> dict
  }

  md.log.Logger o- -> md.log.PatchInterface : "1:n"
  md.log.Logger *-> md.log.KeepInterface : "1:n"
  md.log.KeepStream o- -> md.log.FormatInterface : "1:1"
}

@enduml

PlantUML version 1.2022.0(Tue Jan 11 19:16:42 MSK 2022)
(GPL source distribution)
Java Runtime: OpenJDK Runtime Environment
JVM: OpenJDK 64-Bit Server VM
Default Encoding: UTF-8
Language: ru
Country: RU
--></g></svg>