<?xml version="1.0" encoding="UTF-8" standalone="no"?><svg xmlns="http://www.w3.org/2000/svg" xmlns:xlink="http://www.w3.org/1999/xlink" contentScriptType="application/ecmascript" contentStyleType="text/css" height="688px" preserveAspectRatio="none" style="width:827px;height:688px;background:#FFFFFF;" version="1.1" viewBox="0 0 827 688" width="827px" zoomAndPan="magnify"><defs><filter height="300%" id="fl5dvm02n7muv" width="300%" x="-1" y="-1"><feGaussianBlur result="blurOut" stdDeviation="2.0"/><feColorMatrix in="blurOut" result="blurOut2" type="matrix" values="0 0 0 0 0 0 0 0 0 0 0 0 0 0 0 0 0 0 .4 0"/><feOffset dx="4.0" dy="4.0" in="blurOut2" result="blurOut3"/><feBlend in="SourceGraphic" in2="blurOut3" mode="normal"/></filter></defs><g><!--MD5=[4dee29f85b217686b3aafe3136fb924c]
cluster psr.log--><polygon fill="#FFFFFF" filter="url(#fl5dvm02n7muv)" points="16,6,71,6,78,28.4883,386,28.4883,386,222,16,222,16,6" style="stroke:#000000;stroke-width:1.5;"/><line style="stroke:#000000;stroke-width:1.5;" x1="16" x2="78" y1="28.4883" y2="28.4883"/><text fill="#000000" font-family="sans-serif" font-size="14" font-weight="bold" lengthAdjust="spacing" textLength="49" x="20" y="21.5352">psr.log</text><!--MD5=[c6db52c943aa4e255235ac878148ce84]
cluster md.log--><polygon fill="#FFFFFF" filter="url(#fl5dvm02n7muv)" points="16,246,71,246,78,268.4883,810,268.4883,810,681,16,681,16,246" style="stroke:#000000;stroke-width:1.5;"/><line style="stroke:#000000;stroke-width:1.5;" x1="16" x2="78" y1="268.4883" y2="268.4883"/><text fill="#000000" font-family="sans-serif" font-size="14" font-weight="bold" lengthAdjust="spacing" textLength="49" x="20" y="261.5352">md.log</text><!--MD5=[f2739334762f199a60e808420ae2011e]
class psr.log.LoggerInterface--><rect codeLine="11" fill="#EBEBEB" filter="url(#fl5dvm02n7muv)" height="164.5957" id="psr.log.LoggerInterface" style="stroke:#333333;stroke-width:1.5;" width="338" x="32" y="41"/><ellipse cx="152.25" cy="57" fill="#B4A7E5" rx="11" ry="11" style="stroke:#333333;stroke-width:1.0;"/><path d="M148.1777,52.7651 L148.1777,50.6069 L155.5571,50.6069 L155.5571,52.7651 L153.0918,52.7651 L153.0918,60.8418 L155.5571,60.8418 L155.5571,63 L148.1777,63 L148.1777,60.8418 L150.6431,60.8418 L150.6431,52.7651 Z " fill="#000000"/><text fill="#000000" font-family="sans-serif" font-size="12" font-style="italic" lengthAdjust="spacing" textLength="89" x="172.75" y="61.5352">LoggerInterface</text><line style="stroke:#333333;stroke-width:1.5;" x1="33" x2="369" y1="73" y2="73"/><ellipse cx="43" cy="84" fill="#84BE84" rx="3" ry="3" style="stroke:#038048;stroke-width:1.0;"/><text fill="#000000" font-family="sans-serif" font-size="11" lengthAdjust="spacing" textLength="303" x="52" y="87.6348">emergency (message: str, context: dict = None) -&gt; None</text><ellipse cx="43" cy="96.9551" fill="#84BE84" rx="3" ry="3" style="stroke:#038048;stroke-width:1.0;"/><text fill="#000000" font-family="sans-serif" font-size="11" lengthAdjust="spacing" textLength="268" x="52" y="100.5898">alert (message: str, context: dict = None) -&gt; None</text><ellipse cx="43" cy="109.9102" fill="#84BE84" rx="3" ry="3" style="stroke:#038048;stroke-width:1.0;"/><text fill="#000000" font-family="sans-serif" font-size="11" lengthAdjust="spacing" textLength="280" x="52" y="113.5449">critical (message: str, context: dict = None) -&gt; None</text><ellipse cx="43" cy="122.8652" fill="#84BE84" rx="3" ry="3" style="stroke:#038048;stroke-width:1.0;"/><text fill="#000000" font-family="sans-serif" font-size="11" lengthAdjust="spacing" textLength="272" x="52" y="126.5">error (message: str, context: dict = None) -&gt; None</text><ellipse cx="43" cy="135.8203" fill="#84BE84" rx="3" ry="3" style="stroke:#038048;stroke-width:1.0;"/><text fill="#000000" font-family="sans-serif" font-size="11" lengthAdjust="spacing" textLength="287" x="52" y="139.4551">warning (message: str, context: dict = None) -&gt; None</text><ellipse cx="43" cy="148.7754" fill="#84BE84" rx="3" ry="3" style="stroke:#038048;stroke-width:1.0;"/><text fill="#000000" font-family="sans-serif" font-size="11" lengthAdjust="spacing" textLength="277" x="52" y="152.4102">notice (message: str, context: dict = None) -&gt; None</text><ellipse cx="43" cy="161.7305" fill="#84BE84" rx="3" ry="3" style="stroke:#038048;stroke-width:1.0;"/><text fill="#000000" font-family="sans-serif" font-size="11" lengthAdjust="spacing" textLength="265" x="52" y="165.3652">info (message: str, context: dict = None) -&gt; None</text><ellipse cx="43" cy="174.6855" fill="#84BE84" rx="3" ry="3" style="stroke:#038048;stroke-width:1.0;"/><text fill="#000000" font-family="sans-serif" font-size="11" lengthAdjust="spacing" textLength="278" x="52" y="178.3203">debug (message: str, context: dict = None) -&gt; None</text><line style="stroke:#333333;stroke-width:1.0;" x1="33" x2="369" y1="184.6406" y2="184.6406"/><ellipse cx="43" cy="195.6406" fill="#84BE84" rx="3" ry="3" style="stroke:#038048;stroke-width:1.0;"/><text fill="#000000" font-family="sans-serif" font-size="11" lengthAdjust="spacing" textLength="312" x="52" y="199.2754">log (level: str, message: str, context: dict = None) -&gt; None</text><!--MD5=[b8537de3eee3b7bd5786f1c73ef31be4]
class RecordProcessorInterface--><rect codeLine="26" fill="#EBEBEB" filter="url(#fl5dvm02n7muv)" height="60.9551" id="RecordProcessorInterface" style="stroke:#333333;stroke-width:1.5;" width="180" x="405" y="362.5"/><ellipse cx="420.45" cy="378.5" fill="#B4A7E5" rx="11" ry="11" style="stroke:#333333;stroke-width:1.0;"/><path d="M416.3777,374.2651 L416.3777,372.1069 L423.7571,372.1069 L423.7571,374.2651 L421.2918,374.2651 L421.2918,382.3418 L423.7571,382.3418 L423.7571,384.5 L416.3777,384.5 L416.3777,382.3418 L418.8431,382.3418 L418.8431,374.2651 Z " fill="#000000"/><text fill="#000000" font-family="sans-serif" font-size="12" font-style="italic" lengthAdjust="spacing" textLength="147" x="434.55" y="383.0352">RecordProcessorInterface</text><line style="stroke:#333333;stroke-width:1.5;" x1="406" x2="584" y1="394.5" y2="394.5"/><line style="stroke:#333333;stroke-width:1.5;" x1="406" x2="584" y1="402.5" y2="402.5"/><ellipse cx="416" cy="413.5" fill="#84BE84" rx="3" ry="3" style="stroke:#038048;stroke-width:1.0;"/><text fill="#000000" font-family="sans-serif" font-size="11" lengthAdjust="spacing" textLength="154" x="425" y="417.1348">process(record: dict) -&gt; dict</text><!--MD5=[f66e141d65a03ff7e5429071fdab1893]
class HandlerInterface--><rect codeLine="30" fill="#EBEBEB" filter="url(#fl5dvm02n7muv)" height="60.9551" id="HandlerInterface" style="stroke:#333333;stroke-width:1.5;" width="173" x="620.5" y="362.5"/><ellipse cx="655.75" cy="378.5" fill="#B4A7E5" rx="11" ry="11" style="stroke:#333333;stroke-width:1.0;"/><path d="M651.6777,374.2651 L651.6777,372.1069 L659.0571,372.1069 L659.0571,374.2651 L656.5918,374.2651 L656.5918,382.3418 L659.0571,382.3418 L659.0571,384.5 L651.6777,384.5 L651.6777,382.3418 L654.1431,382.3418 L654.1431,374.2651 Z " fill="#000000"/><text fill="#000000" font-family="sans-serif" font-size="12" font-style="italic" lengthAdjust="spacing" textLength="96" x="674.25" y="383.0352">HandlerInterface</text><line style="stroke:#333333;stroke-width:1.5;" x1="621.5" x2="792.5" y1="394.5" y2="394.5"/><line style="stroke:#333333;stroke-width:1.5;" x1="621.5" x2="792.5" y1="402.5" y2="402.5"/><ellipse cx="631.5" cy="413.5" fill="#84BE84" rx="3" ry="3" style="stroke:#038048;stroke-width:1.0;"/><text fill="#000000" font-family="sans-serif" font-size="11" lengthAdjust="spacing" textLength="147" x="640.5" y="417.1348">handle(record: dict) -&gt; dict</text><!--MD5=[a407bfd989175cc21824bd7f5240d77a]
class PidRecordProcessor--><rect codeLine="34" fill="#EBEBEB" filter="url(#fl5dvm02n7muv)" height="60.9551" id="PidRecordProcessor" style="stroke:#333333;stroke-width:1.5;" width="180" x="397" y="584.5"/><ellipse cx="426.85" cy="600.5" fill="#ADD1B2" rx="11" ry="11" style="stroke:#333333;stroke-width:1.0;"/><path d="M429.8231,606.1431 Q429.2421,606.4419 428.6029,606.5913 Q427.9638,606.7407 427.2582,606.7407 Q424.7514,606.7407 423.4315,605.0889 Q422.1117,603.437 422.1117,600.3159 Q422.1117,597.1865 423.4315,595.5347 Q424.7514,593.8828 427.2582,593.8828 Q427.9638,593.8828 428.6112,594.0322 Q429.2587,594.1816 429.8231,594.4805 L429.8231,597.2031 Q429.1923,596.6221 428.5988,596.3523 Q428.0053,596.0825 427.3744,596.0825 Q426.0297,596.0825 425.3449,597.1492 Q424.6601,598.2158 424.6601,600.3159 Q424.6601,602.4077 425.3449,603.4744 Q426.0297,604.541 427.3744,604.541 Q428.0053,604.541 428.5988,604.2712 Q429.1923,604.0015 429.8231,603.4204 Z " fill="#000000"/><text fill="#000000" font-family="sans-serif" font-size="12" lengthAdjust="spacing" textLength="115" x="444.15" y="605.0352">PidRecordProcessor</text><line style="stroke:#333333;stroke-width:1.5;" x1="398" x2="576" y1="616.5" y2="616.5"/><line style="stroke:#333333;stroke-width:1.5;" x1="398" x2="576" y1="624.5" y2="624.5"/><ellipse cx="408" cy="635.5" fill="#84BE84" rx="3" ry="3" style="stroke:#038048;stroke-width:1.0;"/><text fill="#000000" font-family="sans-serif" font-size="11" lengthAdjust="spacing" textLength="154" x="417" y="639.1348">process(record: dict) -&gt; dict</text><!--MD5=[3f045702497cffb93d4ebeb2839b68f5]
class DefaultHandler--><rect codeLine="38" fill="#EBEBEB" filter="url(#fl5dvm02n7muv)" height="99.8203" id="DefaultHandler" style="stroke:#333333;stroke-width:1.5;" width="181" x="612.5" y="565"/><ellipse cx="655.4" cy="581" fill="#ADD1B2" rx="11" ry="11" style="stroke:#333333;stroke-width:1.0;"/><path d="M658.3731,586.6431 Q657.7921,586.9419 657.1529,587.0913 Q656.5138,587.2407 655.8082,587.2407 Q653.3014,587.2407 651.9815,585.5889 Q650.6617,583.937 650.6617,580.8159 Q650.6617,577.6865 651.9815,576.0347 Q653.3014,574.3828 655.8082,574.3828 Q656.5138,574.3828 657.1612,574.5322 Q657.8087,574.6816 658.3731,574.9805 L658.3731,577.7031 Q657.7423,577.1221 657.1488,576.8523 Q656.5553,576.5825 655.9244,576.5825 Q654.5797,576.5825 653.8949,577.6492 Q653.2101,578.7158 653.2101,580.8159 Q653.2101,582.9077 653.8949,583.9744 Q654.5797,585.041 655.9244,585.041 Q656.5553,585.041 657.1488,584.7712 Q657.7423,584.5015 658.3731,583.9204 Z " fill="#000000"/><text fill="#000000" font-family="sans-serif" font-size="12" lengthAdjust="spacing" textLength="87" x="675.6" y="585.5352">DefaultHandler</text><line style="stroke:#333333;stroke-width:1.5;" x1="613.5" x2="792.5" y1="597" y2="597"/><rect fill="none" height="6" style="stroke:#C82930;stroke-width:1.0;" width="6" x="620.5" y="605"/><text fill="#000000" font-family="sans-serif" font-size="11" lengthAdjust="spacing" textLength="99" x="632.5" y="611.6348">record_format: str</text><rect fill="none" height="6" style="stroke:#C82930;stroke-width:1.0;" width="6" x="620.5" y="617.9551"/><text fill="#000000" font-family="sans-serif" font-size="11" lengthAdjust="spacing" textLength="86" x="632.5" y="624.5898">date_format: str</text><rect fill="none" height="6" style="stroke:#C82930;stroke-width:1.0;" width="6" x="620.5" y="630.9102"/><text fill="#000000" font-family="sans-serif" font-size="11" lengthAdjust="spacing" textLength="66" x="632.5" y="637.5449">filename: str</text><line style="stroke:#333333;stroke-width:1.0;" x1="613.5" x2="792.5" y1="643.8652" y2="643.8652"/><ellipse cx="623.5" cy="654.8652" fill="#84BE84" rx="3" ry="3" style="stroke:#038048;stroke-width:1.0;"/><text fill="#000000" font-family="sans-serif" font-size="11" lengthAdjust="spacing" textLength="155" x="632.5" y="658.5">handle(record: dict) -&gt; None</text><!--MD5=[248f897e4bb16c2722904b15df30346f]
class Logger--><rect codeLine="46" fill="#EBEBEB" filter="url(#fl5dvm02n7muv)" height="224.416" id="Logger" style="stroke:#333333;stroke-width:1.5;" width="338" x="32" y="281"/><ellipse cx="177.25" cy="297" fill="#ADD1B2" rx="11" ry="11" style="stroke:#333333;stroke-width:1.0;"/><path d="M180.2231,302.6431 Q179.6421,302.9419 179.0029,303.0913 Q178.3638,303.2407 177.6582,303.2407 Q175.1514,303.2407 173.8315,301.5889 Q172.5117,299.937 172.5117,296.8159 Q172.5117,293.6865 173.8315,292.0347 Q175.1514,290.3828 177.6582,290.3828 Q178.3638,290.3828 179.0112,290.5322 Q179.6587,290.6816 180.2231,290.9805 L180.2231,293.7031 Q179.5923,293.1221 178.9988,292.8523 Q178.4053,292.5825 177.7744,292.5825 Q176.4297,292.5825 175.7449,293.6492 Q175.0601,294.7158 175.0601,296.8159 Q175.0601,298.9077 175.7449,299.9744 Q176.4297,301.041 177.7744,301.041 Q178.4053,301.041 178.9988,300.7712 Q179.5923,300.5015 180.2231,299.9204 Z " fill="#000000"/><text fill="#000000" font-family="sans-serif" font-size="12" lengthAdjust="spacing" textLength="39" x="197.75" y="301.5352">Logger</text><line style="stroke:#333333;stroke-width:1.5;" x1="33" x2="369" y1="313" y2="313"/><rect fill="none" height="6" style="stroke:#C82930;stroke-width:1.0;" width="6" x="40" y="321"/><text fill="#000000" font-family="sans-serif" font-size="11" lengthAdjust="spacing" textLength="58" x="52" y="327.6348">stream: str</text><rect fill="none" height="6" style="stroke:#C82930;stroke-width:1.0;" width="6" x="40" y="333.9551"/><text fill="#000000" font-family="sans-serif" font-size="11" lengthAdjust="spacing" textLength="63" x="52" y="340.5898">channel: str</text><rect fill="none" height="6" style="stroke:#C82930;stroke-width:1.0;" width="6" x="40" y="346.9102"/><text fill="#000000" font-family="sans-serif" font-size="11" lengthAdjust="spacing" textLength="80" x="52" y="353.5449">log_format: str</text><rect fill="none" height="6" style="stroke:#C82930;stroke-width:1.0;" width="6" x="40" y="359.8652"/><text fill="#000000" font-family="sans-serif" font-size="11" lengthAdjust="spacing" textLength="86" x="52" y="366.5">date_format: str</text><line style="stroke:#333333;stroke-width:1.0;" x1="33" x2="369" y1="372.8203" y2="372.8203"/><ellipse cx="43" cy="383.8203" fill="#84BE84" rx="3" ry="3" style="stroke:#038048;stroke-width:1.0;"/><text fill="#000000" font-family="sans-serif" font-size="11" lengthAdjust="spacing" textLength="303" x="52" y="387.4551">emergency (message: str, context: dict = None) -&gt; None</text><ellipse cx="43" cy="396.7754" fill="#84BE84" rx="3" ry="3" style="stroke:#038048;stroke-width:1.0;"/><text fill="#000000" font-family="sans-serif" font-size="11" lengthAdjust="spacing" textLength="268" x="52" y="400.4102">alert (message: str, context: dict = None) -&gt; None</text><ellipse cx="43" cy="409.7305" fill="#84BE84" rx="3" ry="3" style="stroke:#038048;stroke-width:1.0;"/><text fill="#000000" font-family="sans-serif" font-size="11" lengthAdjust="spacing" textLength="280" x="52" y="413.3652">critical (message: str, context: dict = None) -&gt; None</text><ellipse cx="43" cy="422.6855" fill="#84BE84" rx="3" ry="3" style="stroke:#038048;stroke-width:1.0;"/><text fill="#000000" font-family="sans-serif" font-size="11" lengthAdjust="spacing" textLength="272" x="52" y="426.3203">error (message: str, context: dict = None) -&gt; None</text><ellipse cx="43" cy="435.6406" fill="#84BE84" rx="3" ry="3" style="stroke:#038048;stroke-width:1.0;"/><text fill="#000000" font-family="sans-serif" font-size="11" lengthAdjust="spacing" textLength="287" x="52" y="439.2754">warning (message: str, context: dict = None) -&gt; None</text><ellipse cx="43" cy="448.5957" fill="#84BE84" rx="3" ry="3" style="stroke:#038048;stroke-width:1.0;"/><text fill="#000000" font-family="sans-serif" font-size="11" lengthAdjust="spacing" textLength="277" x="52" y="452.2305">notice (message: str, context: dict = None) -&gt; None</text><ellipse cx="43" cy="461.5508" fill="#84BE84" rx="3" ry="3" style="stroke:#038048;stroke-width:1.0;"/><text fill="#000000" font-family="sans-serif" font-size="11" lengthAdjust="spacing" textLength="265" x="52" y="465.1855">info (message: str, context: dict = None) -&gt; None</text><ellipse cx="43" cy="474.5059" fill="#84BE84" rx="3" ry="3" style="stroke:#038048;stroke-width:1.0;"/><text fill="#000000" font-family="sans-serif" font-size="11" lengthAdjust="spacing" textLength="278" x="52" y="478.1406">debug (message: str, context: dict = None) -&gt; None</text><line style="stroke:#333333;stroke-width:1.0;" x1="33" x2="369" y1="484.4609" y2="484.4609"/><ellipse cx="43" cy="495.4609" fill="#84BE84" rx="3" ry="3" style="stroke:#038048;stroke-width:1.0;"/><text fill="#000000" font-family="sans-serif" font-size="11" lengthAdjust="spacing" textLength="312" x="52" y="499.0957">log (level: str, message: str, context: dict = None) -&gt; None</text><!--MD5=[342961bb871b99c842d003c5ea8d8568]
reverse link RecordProcessorInterface to PidRecordProcessor--><path d="M491,443.87 C491,443.87 491,584.39 491,584.39 " fill="none" id="RecordProcessorInterface-backto-PidRecordProcessor" style="stroke:#333333;stroke-width:1.0;stroke-dasharray:7.0,7.0;"/><polygon fill="none" points="484,443.87,491,423.87,498,443.87,484,443.87" style="stroke:#333333;stroke-width:1.0;"/><!--MD5=[87c52e8a1b5b202f41a77ad4074cc39e]
reverse link HandlerInterface to DefaultHandler--><path d="M735.83,443.87 C735.83,443.87 735.83,564.78 735.83,564.78 " fill="none" id="HandlerInterface-backto-DefaultHandler" style="stroke:#333333;stroke-width:1.0;stroke-dasharray:7.0,7.0;"/><polygon fill="none" points="728.83,443.87,735.83,423.87,742.83,443.87,728.83,443.87" style="stroke:#333333;stroke-width:1.0;"/><!--MD5=[d6f5a4ce2790d01cf76f0705dc6474b8]
reverse link psr.log.LoggerInterface to Logger--><path d="M201,226.19 C201,226.19 201,280.69 201,280.69 " fill="none" id="psr.log.LoggerInterface-backto-Logger" style="stroke:#333333;stroke-width:1.0;stroke-dasharray:7.0,7.0;"/><polygon fill="none" points="194,226.19,201,206.19,208,226.19,194,226.19" style="stroke:#333333;stroke-width:1.0;"/><!--MD5=[b84ff2db2028b0499a50f9f77558803a]
link Logger to HandlerInterface--><path codeLine="64" d="M382.24,465 C382.24,465 678.17,465 678.17,465 C678.17,465 678.17,436.53 678.17,436.53 " fill="none" id="Logger-HandlerInterface" style="stroke:#333333;stroke-width:1.0;"/><polygon fill="#333333" points="678.17,423.53,674.17,432.53,678.17,428.53,682.17,432.53,678.17,423.53" style="stroke:#333333;stroke-width:1.0;"/><line style="stroke:#333333;stroke-width:1.0;" x1="678.17" x2="678.17" y1="428.53" y2="436.53"/><polygon fill="#333333" points="370.24,465,376.24,469,382.24,465,376.24,461,370.24,465" style="stroke:#333333;stroke-width:1.0;"/><text fill="#000000" font-family="sans-serif" font-size="13" lengthAdjust="spacing" textLength="20" x="523.94" y="461.5684">1:n</text><!--MD5=[759828154898a31c468ed77172ba03cb]
link Logger to RecordProcessorInterface--><path codeLine="65" d="M382.32,393 C382.32,393 391.65,393 391.65,393 " fill="none" id="Logger-RecordProcessorInterface" style="stroke:#333333;stroke-width:1.0;"/><polygon fill="#333333" points="404.65,393,395.65,389,399.65,393,395.65,397,404.65,393" style="stroke:#333333;stroke-width:1.0;"/><line style="stroke:#333333;stroke-width:1.0;" x1="399.65" x2="391.65" y1="393" y2="393"/><polygon fill="#FFFFFF" points="370.32,393,376.32,397,382.32,393,376.32,389,370.32,393" style="stroke:#333333;stroke-width:1.0;"/><text fill="#000000" font-family="sans-serif" font-size="13" lengthAdjust="spacing" textLength="20" x="382.99" y="406.5684">1:1</text><!--MD5=[eca526308a72fda2766c146528a2f7c9]
@startuml

skinparam class {
  BackgroundColor #ebebeb
  ArrowColor      #333
  BorderColor     #333
}

skinparam lineType ortho

package psr.log {
  interface psr.log.LoggerInterface {
    + emergency (message: str, context: dict = None) -> None
    + alert (message: str, context: dict = None) -> None
    + critical (message: str, context: dict = None) -> None
    + error (message: str, context: dict = None) -> None
    + warning (message: str, context: dict = None) -> None
    + notice (message: str, context: dict = None) -> None
    + info (message: str, context: dict = None) -> None
    + debug (message: str, context: dict = None) -> None
    - - -
    + log (level: str, message: str, context: dict = None) -> None
  }
}

package md.log {
  interface RecordProcessorInterface {
    + process(record: dict) -> dict
  }

  interface HandlerInterface {
    + handle(record: dict) -> dict
  }

  class PidRecordProcessor implements RecordProcessorInterface {
    + process(record: dict) -> dict
  }

  class DefaultHandler implements HandlerInterface {
    - record_format: str
    - date_format: str
    - filename: str
    - - -
    + handle(record: dict) -> None
  }

  class Logger implements psr.log.LoggerInterface {
    - stream: str
    - channel: str
    - log_format: str
    - date_format: str
    - - -
    + emergency (message: str, context: dict = None) -> None
    + alert (message: str, context: dict = None) -> None
    + critical (message: str, context: dict = None) -> None
    + error (message: str, context: dict = None) -> None
    + warning (message: str, context: dict = None) -> None
    + notice (message: str, context: dict = None) -> None
    + info (message: str, context: dict = None) -> None
    + debug (message: str, context: dict = None) -> None
    - - -
    + log (level: str, message: str, context: dict = None) -> None
  }
  
  Logger *-> HandlerInterface : "1:n"
  Logger o-> RecordProcessorInterface : "1:1"
}

@enduml

PlantUML version 1.2022.0(Tue Jan 11 19:16:42 MSK 2022)
(GPL source distribution)
Java Runtime: OpenJDK Runtime Environment
JVM: OpenJDK 64-Bit Server VM
Default Encoding: UTF-8
Language: ru
Country: RU
--></g></svg>