<?xml version="1.0" encoding="UTF-8" standalone="no"?><svg xmlns="http://www.w3.org/2000/svg" xmlns:xlink="http://www.w3.org/1999/xlink" contentScriptType="application/ecmascript" contentStyleType="text/css" height="675px" preserveAspectRatio="none" style="width:887px;height:675px;background:#FFFFFF;" version="1.1" viewBox="0 0 887 675" width="887px" zoomAndPan="magnify"><defs><filter height="300%" id="ffldo175205d" width="300%" x="-1" y="-1"><feGaussianBlur result="blurOut" stdDeviation="2.0"/><feColorMatrix in="blurOut" result="blurOut2" type="matrix" values="0 0 0 0 0 0 0 0 0 0 0 0 0 0 0 0 0 0 .4 0"/><feOffset dx="4.0" dy="4.0" in="blurOut2" result="blurOut3"/><feBlend in="SourceGraphic" in2="blurOut3" mode="normal"/></filter></defs><g><!--MD5=[4dee29f85b217686b3aafe3136fb924c]
cluster psr.log--><polygon fill="#FFFFFF" filter="url(#ffldo175205d)" points="46,6,101,6,108,28.4883,416,28.4883,416,222,46,222,46,6" style="stroke:#000000;stroke-width:1.5;"/><line style="stroke:#000000;stroke-width:1.5;" x1="46" x2="108" y1="28.4883" y2="28.4883"/><text fill="#000000" font-family="sans-serif" font-size="14" font-weight="bold" lengthAdjust="spacing" textLength="49" x="50" y="21.5352">psr.log</text><!--MD5=[c6db52c943aa4e255235ac878148ce84]
cluster md.log--><polygon fill="#FFFFFF" filter="url(#ffldo175205d)" points="16,246,71,246,78,268.4883,870,268.4883,870,668,16,668,16,246" style="stroke:#000000;stroke-width:1.5;"/><line style="stroke:#000000;stroke-width:1.5;" x1="16" x2="78" y1="268.4883" y2="268.4883"/><text fill="#000000" font-family="sans-serif" font-size="14" font-weight="bold" lengthAdjust="spacing" textLength="49" x="20" y="261.5352">md.log</text><!--MD5=[f2739334762f199a60e808420ae2011e]
class psr.log.LoggerInterface--><rect codeLine="11" fill="#EBEBEB" filter="url(#ffldo175205d)" height="164.5957" id="psr.log.LoggerInterface" style="stroke:#333333;stroke-width:1.5;" width="338" x="62" y="41"/><ellipse cx="182.25" cy="57" fill="#B4A7E5" rx="11" ry="11" style="stroke:#333333;stroke-width:1.0;"/><path d="M178.1777,52.7651 L178.1777,50.6069 L185.5571,50.6069 L185.5571,52.7651 L183.0918,52.7651 L183.0918,60.8418 L185.5571,60.8418 L185.5571,63 L178.1777,63 L178.1777,60.8418 L180.6431,60.8418 L180.6431,52.7651 Z " fill="#000000"/><text fill="#000000" font-family="sans-serif" font-size="12" font-style="italic" lengthAdjust="spacing" textLength="89" x="202.75" y="61.5352">LoggerInterface</text><line style="stroke:#333333;stroke-width:1.5;" x1="63" x2="399" y1="73" y2="73"/><ellipse cx="73" cy="84" fill="#84BE84" rx="3" ry="3" style="stroke:#038048;stroke-width:1.0;"/><text fill="#000000" font-family="sans-serif" font-size="11" lengthAdjust="spacing" textLength="303" x="82" y="87.6348">emergency (message: str, context: dict = None) -&gt; None</text><ellipse cx="73" cy="96.9551" fill="#84BE84" rx="3" ry="3" style="stroke:#038048;stroke-width:1.0;"/><text fill="#000000" font-family="sans-serif" font-size="11" lengthAdjust="spacing" textLength="268" x="82" y="100.5898">alert (message: str, context: dict = None) -&gt; None</text><ellipse cx="73" cy="109.9102" fill="#84BE84" rx="3" ry="3" style="stroke:#038048;stroke-width:1.0;"/><text fill="#000000" font-family="sans-serif" font-size="11" lengthAdjust="spacing" textLength="280" x="82" y="113.5449">critical (message: str, context: dict = None) -&gt; None</text><ellipse cx="73" cy="122.8652" fill="#84BE84" rx="3" ry="3" style="stroke:#038048;stroke-width:1.0;"/><text fill="#000000" font-family="sans-serif" font-size="11" lengthAdjust="spacing" textLength="272" x="82" y="126.5">error (message: str, context: dict = None) -&gt; None</text><ellipse cx="73" cy="135.8203" fill="#84BE84" rx="3" ry="3" style="stroke:#038048;stroke-width:1.0;"/><text fill="#000000" font-family="sans-serif" font-size="11" lengthAdjust="spacing" textLength="287" x="82" y="139.4551">warning (message: str, context: dict = None) -&gt; None</text><ellipse cx="73" cy="148.7754" fill="#84BE84" rx="3" ry="3" style="stroke:#038048;stroke-width:1.0;"/><text fill="#000000" font-family="sans-serif" font-size="11" lengthAdjust="spacing" textLength="277" x="82" y="152.4102">notice (message: str, context: dict = None) -&gt; None</text><ellipse cx="73" cy="161.7305" fill="#84BE84" rx="3" ry="3" style="stroke:#038048;stroke-width:1.0;"/><text fill="#000000" font-family="sans-serif" font-size="11" lengthAdjust="spacing" textLength="265" x="82" y="165.3652">info (message: str, context: dict = None) -&gt; None</text><ellipse cx="73" cy="174.6855" fill="#84BE84" rx="3" ry="3" style="stroke:#038048;stroke-width:1.0;"/><text fill="#000000" font-family="sans-serif" font-size="11" lengthAdjust="spacing" textLength="278" x="82" y="178.3203">debug (message: str, context: dict = None) -&gt; None</text><line style="stroke:#333333;stroke-width:1.0;" x1="63" x2="399" y1="184.6406" y2="184.6406"/><ellipse cx="73" cy="195.6406" fill="#84BE84" rx="3" ry="3" style="stroke:#038048;stroke-width:1.0;"/><text fill="#000000" font-family="sans-serif" font-size="11" lengthAdjust="spacing" textLength="312" x="82" y="199.2754">log (level: str, message: str, context: dict = None) -&gt; None</text><!--MD5=[b8537de3eee3b7bd5786f1c73ef31be4]
class RecordProcessorInterface--><rect codeLine="26" fill="#EBEBEB" filter="url(#ffldo175205d)" height="60.9551" id="RecordProcessorInterface" style="stroke:#333333;stroke-width:1.5;" width="180" x="465" y="356"/><ellipse cx="480.45" cy="372" fill="#B4A7E5" rx="11" ry="11" style="stroke:#333333;stroke-width:1.0;"/><path d="M476.3777,367.7651 L476.3777,365.6069 L483.7571,365.6069 L483.7571,367.7651 L481.2918,367.7651 L481.2918,375.8418 L483.7571,375.8418 L483.7571,378 L476.3777,378 L476.3777,375.8418 L478.8431,375.8418 L478.8431,367.7651 Z " fill="#000000"/><text fill="#000000" font-family="sans-serif" font-size="12" font-style="italic" lengthAdjust="spacing" textLength="147" x="494.55" y="376.5352">RecordProcessorInterface</text><line style="stroke:#333333;stroke-width:1.5;" x1="466" x2="644" y1="388" y2="388"/><line style="stroke:#333333;stroke-width:1.5;" x1="466" x2="644" y1="396" y2="396"/><ellipse cx="476" cy="407" fill="#84BE84" rx="3" ry="3" style="stroke:#038048;stroke-width:1.0;"/><text fill="#000000" font-family="sans-serif" font-size="11" lengthAdjust="spacing" textLength="154" x="485" y="410.6348">process(record: dict) -&gt; dict</text><!--MD5=[f66e141d65a03ff7e5429071fdab1893]
class HandlerInterface--><rect codeLine="30" fill="#EBEBEB" filter="url(#ffldo175205d)" height="60.9551" id="HandlerInterface" style="stroke:#333333;stroke-width:1.5;" width="173" x="680.5" y="356"/><ellipse cx="715.75" cy="372" fill="#B4A7E5" rx="11" ry="11" style="stroke:#333333;stroke-width:1.0;"/><path d="M711.6777,367.7651 L711.6777,365.6069 L719.0571,365.6069 L719.0571,367.7651 L716.5918,367.7651 L716.5918,375.8418 L719.0571,375.8418 L719.0571,378 L711.6777,378 L711.6777,375.8418 L714.1431,375.8418 L714.1431,367.7651 Z " fill="#000000"/><text fill="#000000" font-family="sans-serif" font-size="12" font-style="italic" lengthAdjust="spacing" textLength="96" x="734.25" y="376.5352">HandlerInterface</text><line style="stroke:#333333;stroke-width:1.5;" x1="681.5" x2="852.5" y1="388" y2="388"/><line style="stroke:#333333;stroke-width:1.5;" x1="681.5" x2="852.5" y1="396" y2="396"/><ellipse cx="691.5" cy="407" fill="#84BE84" rx="3" ry="3" style="stroke:#038048;stroke-width:1.0;"/><text fill="#000000" font-family="sans-serif" font-size="11" lengthAdjust="spacing" textLength="147" x="700.5" y="410.6348">handle(record: dict) -&gt; dict</text><!--MD5=[a407bfd989175cc21824bd7f5240d77a]
class PidRecordProcessor--><rect codeLine="34" fill="#EBEBEB" filter="url(#ffldo175205d)" height="60.9551" id="PidRecordProcessor" style="stroke:#333333;stroke-width:1.5;" width="180" x="457" y="571.5"/><ellipse cx="486.85" cy="587.5" fill="#ADD1B2" rx="11" ry="11" style="stroke:#333333;stroke-width:1.0;"/><path d="M489.8231,593.1431 Q489.2421,593.4419 488.6029,593.5913 Q487.9638,593.7407 487.2582,593.7407 Q484.7514,593.7407 483.4315,592.0889 Q482.1117,590.437 482.1117,587.3159 Q482.1117,584.1865 483.4315,582.5347 Q484.7514,580.8828 487.2582,580.8828 Q487.9638,580.8828 488.6112,581.0322 Q489.2587,581.1816 489.8231,581.4805 L489.8231,584.2031 Q489.1923,583.6221 488.5988,583.3523 Q488.0053,583.0825 487.3744,583.0825 Q486.0297,583.0825 485.3449,584.1492 Q484.6601,585.2158 484.6601,587.3159 Q484.6601,589.4077 485.3449,590.4744 Q486.0297,591.541 487.3744,591.541 Q488.0053,591.541 488.5988,591.2712 Q489.1923,591.0015 489.8231,590.4204 Z " fill="#000000"/><text fill="#000000" font-family="sans-serif" font-size="12" lengthAdjust="spacing" textLength="115" x="504.15" y="592.0352">PidRecordProcessor</text><line style="stroke:#333333;stroke-width:1.5;" x1="458" x2="636" y1="603.5" y2="603.5"/><line style="stroke:#333333;stroke-width:1.5;" x1="458" x2="636" y1="611.5" y2="611.5"/><ellipse cx="468" cy="622.5" fill="#84BE84" rx="3" ry="3" style="stroke:#038048;stroke-width:1.0;"/><text fill="#000000" font-family="sans-serif" font-size="11" lengthAdjust="spacing" textLength="154" x="477" y="626.1348">process(record: dict) -&gt; dict</text><!--MD5=[3f045702497cffb93d4ebeb2839b68f5]
class DefaultHandler--><rect codeLine="38" fill="#EBEBEB" filter="url(#ffldo175205d)" height="99.8203" id="DefaultHandler" style="stroke:#333333;stroke-width:1.5;" width="181" x="672.5" y="552"/><ellipse cx="715.4" cy="568" fill="#ADD1B2" rx="11" ry="11" style="stroke:#333333;stroke-width:1.0;"/><path d="M718.3731,573.6431 Q717.7921,573.9419 717.1529,574.0913 Q716.5138,574.2407 715.8082,574.2407 Q713.3014,574.2407 711.9815,572.5889 Q710.6617,570.937 710.6617,567.8159 Q710.6617,564.6865 711.9815,563.0347 Q713.3014,561.3828 715.8082,561.3828 Q716.5138,561.3828 717.1612,561.5322 Q717.8087,561.6816 718.3731,561.9805 L718.3731,564.7031 Q717.7423,564.1221 717.1488,563.8523 Q716.5553,563.5825 715.9244,563.5825 Q714.5797,563.5825 713.8949,564.6492 Q713.2101,565.7158 713.2101,567.8159 Q713.2101,569.9077 713.8949,570.9744 Q714.5797,572.041 715.9244,572.041 Q716.5553,572.041 717.1488,571.7712 Q717.7423,571.5015 718.3731,570.9204 Z " fill="#000000"/><text fill="#000000" font-family="sans-serif" font-size="12" lengthAdjust="spacing" textLength="87" x="735.6" y="572.5352">DefaultHandler</text><line style="stroke:#333333;stroke-width:1.5;" x1="673.5" x2="852.5" y1="584" y2="584"/><rect fill="none" height="6" style="stroke:#C82930;stroke-width:1.0;" width="6" x="680.5" y="592"/><text fill="#000000" font-family="sans-serif" font-size="11" lengthAdjust="spacing" textLength="99" x="692.5" y="598.6348">record_format: str</text><rect fill="none" height="6" style="stroke:#C82930;stroke-width:1.0;" width="6" x="680.5" y="604.9551"/><text fill="#000000" font-family="sans-serif" font-size="11" lengthAdjust="spacing" textLength="86" x="692.5" y="611.5898">date_format: str</text><rect fill="none" height="6" style="stroke:#C82930;stroke-width:1.0;" width="6" x="680.5" y="617.9102"/><text fill="#000000" font-family="sans-serif" font-size="11" lengthAdjust="spacing" textLength="66" x="692.5" y="624.5449">filename: str</text><line style="stroke:#333333;stroke-width:1.0;" x1="673.5" x2="852.5" y1="630.8652" y2="630.8652"/><ellipse cx="683.5" cy="641.8652" fill="#84BE84" rx="3" ry="3" style="stroke:#038048;stroke-width:1.0;"/><text fill="#000000" font-family="sans-serif" font-size="11" lengthAdjust="spacing" textLength="155" x="692.5" y="645.5">handle(record: dict) -&gt; None</text><!--MD5=[248f897e4bb16c2722904b15df30346f]
class Logger--><rect codeLine="46" fill="#EBEBEB" filter="url(#ffldo175205d)" height="211.4609" id="Logger" style="stroke:#333333;stroke-width:1.5;" width="397" x="32.5" y="281"/><ellipse cx="207.25" cy="297" fill="#ADD1B2" rx="11" ry="11" style="stroke:#333333;stroke-width:1.0;"/><path d="M210.2231,302.6431 Q209.6421,302.9419 209.0029,303.0913 Q208.3638,303.2407 207.6582,303.2407 Q205.1514,303.2407 203.8315,301.5889 Q202.5117,299.937 202.5117,296.8159 Q202.5117,293.6865 203.8315,292.0347 Q205.1514,290.3828 207.6582,290.3828 Q208.3638,290.3828 209.0112,290.5322 Q209.6587,290.6816 210.2231,290.9805 L210.2231,293.7031 Q209.5923,293.1221 208.9988,292.8523 Q208.4053,292.5825 207.7744,292.5825 Q206.4297,292.5825 205.7449,293.6492 Q205.0601,294.7158 205.0601,296.8159 Q205.0601,298.9077 205.7449,299.9744 Q206.4297,301.041 207.7744,301.041 Q208.4053,301.041 208.9988,300.7712 Q209.5923,300.5015 210.2231,299.9204 Z " fill="#000000"/><text fill="#000000" font-family="sans-serif" font-size="12" lengthAdjust="spacing" textLength="39" x="227.75" y="301.5352">Logger</text><line style="stroke:#333333;stroke-width:1.5;" x1="33.5" x2="428.5" y1="313" y2="313"/><rect fill="none" height="6" style="stroke:#C82930;stroke-width:1.0;" width="6" x="40.5" y="321"/><text fill="#000000" font-family="sans-serif" font-size="11" lengthAdjust="spacing" textLength="50" x="52.5" y="327.6348">name: str</text><rect fill="none" height="6" style="stroke:#C82930;stroke-width:1.0;" width="6" x="40.5" y="333.9551"/><text fill="#000000" font-family="sans-serif" font-size="11" lengthAdjust="spacing" textLength="265" x="52.5" y="340.5898">handler_list: typing.List[HandlerInterface] = None</text><rect fill="none" height="6" style="stroke:#C82930;stroke-width:1.0;" width="6" x="40.5" y="346.9102"/><text fill="#000000" font-family="sans-serif" font-size="11" lengthAdjust="spacing" textLength="371" x="52.5" y="353.5449">record_processor_list: typing.List[RecordProcessorInterface] = None</text><line style="stroke:#333333;stroke-width:1.0;" x1="33.5" x2="428.5" y1="359.8652" y2="359.8652"/><ellipse cx="43.5" cy="370.8652" fill="#84BE84" rx="3" ry="3" style="stroke:#038048;stroke-width:1.0;"/><text fill="#000000" font-family="sans-serif" font-size="11" lengthAdjust="spacing" textLength="303" x="52.5" y="374.5">emergency (message: str, context: dict = None) -&gt; None</text><ellipse cx="43.5" cy="383.8203" fill="#84BE84" rx="3" ry="3" style="stroke:#038048;stroke-width:1.0;"/><text fill="#000000" font-family="sans-serif" font-size="11" lengthAdjust="spacing" textLength="268" x="52.5" y="387.4551">alert (message: str, context: dict = None) -&gt; None</text><ellipse cx="43.5" cy="396.7754" fill="#84BE84" rx="3" ry="3" style="stroke:#038048;stroke-width:1.0;"/><text fill="#000000" font-family="sans-serif" font-size="11" lengthAdjust="spacing" textLength="280" x="52.5" y="400.4102">critical (message: str, context: dict = None) -&gt; None</text><ellipse cx="43.5" cy="409.7305" fill="#84BE84" rx="3" ry="3" style="stroke:#038048;stroke-width:1.0;"/><text fill="#000000" font-family="sans-serif" font-size="11" lengthAdjust="spacing" textLength="272" x="52.5" y="413.3652">error (message: str, context: dict = None) -&gt; None</text><ellipse cx="43.5" cy="422.6855" fill="#84BE84" rx="3" ry="3" style="stroke:#038048;stroke-width:1.0;"/><text fill="#000000" font-family="sans-serif" font-size="11" lengthAdjust="spacing" textLength="287" x="52.5" y="426.3203">warning (message: str, context: dict = None) -&gt; None</text><ellipse cx="43.5" cy="435.6406" fill="#84BE84" rx="3" ry="3" style="stroke:#038048;stroke-width:1.0;"/><text fill="#000000" font-family="sans-serif" font-size="11" lengthAdjust="spacing" textLength="277" x="52.5" y="439.2754">notice (message: str, context: dict = None) -&gt; None</text><ellipse cx="43.5" cy="448.5957" fill="#84BE84" rx="3" ry="3" style="stroke:#038048;stroke-width:1.0;"/><text fill="#000000" font-family="sans-serif" font-size="11" lengthAdjust="spacing" textLength="265" x="52.5" y="452.2305">info (message: str, context: dict = None) -&gt; None</text><ellipse cx="43.5" cy="461.5508" fill="#84BE84" rx="3" ry="3" style="stroke:#038048;stroke-width:1.0;"/><text fill="#000000" font-family="sans-serif" font-size="11" lengthAdjust="spacing" textLength="278" x="52.5" y="465.1855">debug (message: str, context: dict = None) -&gt; None</text><line style="stroke:#333333;stroke-width:1.0;" x1="33.5" x2="428.5" y1="471.5059" y2="471.5059"/><ellipse cx="43.5" cy="482.5059" fill="#84BE84" rx="3" ry="3" style="stroke:#038048;stroke-width:1.0;"/><text fill="#000000" font-family="sans-serif" font-size="11" lengthAdjust="spacing" textLength="312" x="52.5" y="486.1406">log (level: str, message: str, context: dict = None) -&gt; None</text><!--MD5=[342961bb871b99c842d003c5ea8d8568]
reverse link RecordProcessorInterface to PidRecordProcessor--><path d="M551,437.38 C551,437.38 551,571.18 551,571.18 " fill="none" id="RecordProcessorInterface-backto-PidRecordProcessor" style="stroke:#333333;stroke-width:1.0;stroke-dasharray:7.0,7.0;"/><polygon fill="none" points="544,437.38,551,417.38,558,437.38,544,437.38" style="stroke:#333333;stroke-width:1.0;"/><!--MD5=[87c52e8a1b5b202f41a77ad4074cc39e]
reverse link HandlerInterface to DefaultHandler--><path d="M767,437.38 C767,437.38 767,551.63 767,551.63 " fill="none" id="HandlerInterface-backto-DefaultHandler" style="stroke:#333333;stroke-width:1.0;stroke-dasharray:7.0,7.0;"/><polygon fill="none" points="760,437.38,767,417.38,774,437.38,760,437.38" style="stroke:#333333;stroke-width:1.0;"/><!--MD5=[d6f5a4ce2790d01cf76f0705dc6474b8]
reverse link psr.log.LoggerInterface to Logger--><path d="M231,226.35 C231,226.35 231,280.88 231,280.88 " fill="none" id="psr.log.LoggerInterface-backto-Logger" style="stroke:#333333;stroke-width:1.0;stroke-dasharray:7.0,7.0;"/><polygon fill="none" points="224,226.35,231,206.35,238,226.35,224,226.35" style="stroke:#333333;stroke-width:1.0;"/><!--MD5=[b84ff2db2028b0499a50f9f77558803a]
link Logger to HandlerInterface--><path codeLine="63" d="M441.82,319 C441.82,319 767,319 767,319 C767,319 767,342.91 767,342.91 " fill="none" id="Logger-HandlerInterface" style="stroke:#333333;stroke-width:1.0;"/><polygon fill="#333333" points="767,355.91,771,346.91,767,350.91,763,346.91,767,355.91" style="stroke:#333333;stroke-width:1.0;"/><line style="stroke:#333333;stroke-width:1.0;" x1="767" x2="767" y1="350.91" y2="342.91"/><polygon fill="#333333" points="429.82,319,435.82,323,441.82,319,435.82,315,429.82,319" style="stroke:#333333;stroke-width:1.0;"/><text fill="#000000" font-family="sans-serif" font-size="13" lengthAdjust="spacing" textLength="20" x="595.87" y="315.5684">1:n</text><!--MD5=[759828154898a31c468ed77172ba03cb]
link Logger to RecordProcessorInterface--><path codeLine="64" d="M441.73,387 C441.73,387 451.74,387 451.74,387 " fill="none" id="Logger-RecordProcessorInterface" style="stroke:#333333;stroke-width:1.0;"/><polygon fill="#333333" points="464.74,387,455.74,383,459.74,387,455.74,391,464.74,387" style="stroke:#333333;stroke-width:1.0;"/><line style="stroke:#333333;stroke-width:1.0;" x1="459.74" x2="451.74" y1="387" y2="387"/><polygon fill="#FFFFFF" points="429.73,387,435.73,391,441.73,387,435.73,383,429.73,387" style="stroke:#333333;stroke-width:1.0;"/><text fill="#000000" font-family="sans-serif" font-size="13" lengthAdjust="spacing" textLength="20" x="442.74" y="400.5684">1:1</text><!--MD5=[da133c8fb9d8ac919f75131bdc858a7e]
@startuml

skinparam class {
  BackgroundColor #ebebeb
  ArrowColor      #333
  BorderColor     #333
}

skinparam lineType ortho

package psr.log {
  interface psr.log.LoggerInterface {
    + emergency (message: str, context: dict = None) -> None
    + alert (message: str, context: dict = None) -> None
    + critical (message: str, context: dict = None) -> None
    + error (message: str, context: dict = None) -> None
    + warning (message: str, context: dict = None) -> None
    + notice (message: str, context: dict = None) -> None
    + info (message: str, context: dict = None) -> None
    + debug (message: str, context: dict = None) -> None
    - - -
    + log (level: str, message: str, context: dict = None) -> None
  }
}

package md.log {
  interface RecordProcessorInterface {
    + process(record: dict) -> dict
  }

  interface HandlerInterface {
    + handle(record: dict) -> dict
  }

  class PidRecordProcessor implements RecordProcessorInterface {
    + process(record: dict) -> dict
  }

  class DefaultHandler implements HandlerInterface {
    - record_format: str
    - date_format: str
    - filename: str
    - - -
    + handle(record: dict) -> None
  }

  class Logger implements psr.log.LoggerInterface {
    - name: str
    - handler_list: typing.List[HandlerInterface] = None
    - record_processor_list: typing.List[RecordProcessorInterface] = None
    - - -
    + emergency (message: str, context: dict = None) -> None
    + alert (message: str, context: dict = None) -> None
    + critical (message: str, context: dict = None) -> None
    + error (message: str, context: dict = None) -> None
    + warning (message: str, context: dict = None) -> None
    + notice (message: str, context: dict = None) -> None
    + info (message: str, context: dict = None) -> None
    + debug (message: str, context: dict = None) -> None
    - - -
    + log (level: str, message: str, context: dict = None) -> None
  }

  Logger *-> HandlerInterface : "1:n"
  Logger o-> RecordProcessorInterface : "1:1"
}

@enduml

PlantUML version 1.2022.0(Tue Jan 11 19:16:42 MSK 2022)
(GPL source distribution)
Java Runtime: OpenJDK Runtime Environment
JVM: OpenJDK 64-Bit Server VM
Default Encoding: UTF-8
Language: ru
Country: RU
--></g></svg>